<svg width="8" height="15" viewBox="0 0 8 15" fill="none" xmlns="http://www.w3.org/2000/svg">
<path opacity="0.7" d="M0.198911 1.16494L5.98005 6.98934C6.10684 7.11642 6.17838 7.28838 6.17914 7.46789C6.1799 7.6474 6.10981 7.81996 5.9841 7.94811L0.253624 13.8211C0.127982 13.9501 0.0580066 14.1232 0.058767 14.3032C0.0595275 14.4833 0.130963 14.6558 0.25769 14.7836C0.3196 14.8466 0.393488 14.8966 0.475001 14.9305C0.556513 14.9645 0.644001 14.9818 0.732307 14.9814C0.820613 14.9811 0.907951 14.963 0.989173 14.9284C1.0704 14.8937 1.14386 14.8431 1.20524 14.7796L6.93572 8.90786C7.31227 8.52111 7.52196 8.00201 7.51968 7.46223C7.5174 6.92245 7.30333 6.40514 6.92353 6.02158L1.14364 0.198421C1.08171 0.13526 1.00774 0.0851589 0.926115 0.051079C0.844487 0.0169991 0.756853 -0.000367416 0.668396 6.23896e-06C0.57994 0.000379892 0.492457 0.0184862 0.411119 0.0532545C0.329781 0.0880228 0.25624 0.138747 0.194845 0.202428C0.0692035 0.331365 -0.00077174 0.504489 -1.12554e-05 0.684515C0.000749229 0.864542 0.0721846 1.03707 0.198911 1.16494Z" fill="#2C2C2C"/>
</svg>
