<svg width="152" height="227" viewBox="0 0 152 227" fill="none" xmlns="http://www.w3.org/2000/svg">
<g filter="url(#filter0_d_109_4)">
<rect x="4.5" y="0.5" width="142.983" height="217.322" fill="#091934" stroke="black"/>
<mask id="path-2-outside-1_109_4" maskUnits="userSpaceOnUse" x="18.2443" y="87.649" width="112" height="17" fill="black">
<rect fill="white" x="18.2443" y="87.649" width="112" height="17"/>
<path d="M26.9943 99.649H25.7203L20.5963 91.879V99.649H19.3223V89.877H20.5963L25.7203 97.633V89.877H26.9943V99.649ZM32.512 99.775C31.7933 99.775 31.14 99.6117 30.552 99.285C29.9733 98.9584 29.516 98.4964 29.18 97.899C28.8533 97.2924 28.69 96.5924 28.69 95.799C28.69 95.015 28.858 94.3244 29.194 93.727C29.5393 93.1204 30.006 92.6584 30.594 92.341C31.182 92.0144 31.84 91.851 32.568 91.851C33.296 91.851 33.954 92.0144 34.542 92.341C35.13 92.6584 35.592 93.1157 35.928 93.713C36.2733 94.3104 36.446 95.0057 36.446 95.799C36.446 96.5924 36.2687 97.2924 35.914 97.899C35.5687 98.4964 35.0973 98.9584 34.5 99.285C33.9027 99.6117 33.24 99.775 32.512 99.775ZM32.512 98.655C32.9693 98.655 33.3987 98.5477 33.8 98.333C34.2013 98.1184 34.5233 97.7964 34.766 97.367C35.018 96.9377 35.144 96.415 35.144 95.799C35.144 95.183 35.0227 94.6604 34.78 94.231C34.5373 93.8017 34.22 93.4844 33.828 93.279C33.436 93.0644 33.0113 92.957 32.554 92.957C32.0873 92.957 31.658 93.0644 31.266 93.279C30.8833 93.4844 30.5753 93.8017 30.342 94.231C30.1087 94.6604 29.992 95.183 29.992 95.799C29.992 96.4244 30.104 96.9517 30.328 97.381C30.5613 97.8104 30.8693 98.1324 31.252 98.347C31.6347 98.5524 32.0547 98.655 32.512 98.655ZM43.1275 93.391C43.3795 92.9524 43.7528 92.5884 44.2475 92.299C44.7515 92.0004 45.3348 91.851 45.9975 91.851C46.6788 91.851 47.2948 92.0144 47.8455 92.341C48.4055 92.6677 48.8442 93.1297 49.1615 93.727C49.4788 94.315 49.6375 95.001 49.6375 95.785C49.6375 96.5597 49.4788 97.2504 49.1615 97.857C48.8442 98.4637 48.4055 98.935 47.8455 99.271C47.2948 99.607 46.6788 99.775 45.9975 99.775C45.3442 99.775 44.7655 99.6304 44.2615 99.341C43.7668 99.0424 43.3888 98.6737 43.1275 98.235V103.289H41.8535V91.977H43.1275V93.391ZM48.3355 95.785C48.3355 95.2064 48.2188 94.7024 47.9855 94.273C47.7522 93.8437 47.4348 93.517 47.0335 93.293C46.6415 93.069 46.2075 92.957 45.7315 92.957C45.2648 92.957 44.8308 93.0737 44.4295 93.307C44.0375 93.531 43.7202 93.8624 43.4775 94.301C43.2442 94.7304 43.1275 95.2297 43.1275 95.799C43.1275 96.3777 43.2442 96.8864 43.4775 97.325C43.7202 97.7544 44.0375 98.0857 44.4295 98.319C44.8308 98.543 45.2648 98.655 45.7315 98.655C46.2075 98.655 46.6415 98.543 47.0335 98.319C47.4348 98.0857 47.7522 97.7544 47.9855 97.325C48.2188 96.8864 48.3355 96.373 48.3355 95.785ZM54.6605 99.775C53.9418 99.775 53.2885 99.6117 52.7005 99.285C52.1218 98.9584 51.6645 98.4964 51.3285 97.899C51.0018 97.2924 50.8385 96.5924 50.8385 95.799C50.8385 95.015 51.0065 94.3244 51.3425 93.727C51.6878 93.1204 52.1545 92.6584 52.7425 92.341C53.3305 92.0144 53.9885 91.851 54.7165 91.851C55.4445 91.851 56.1025 92.0144 56.6905 92.341C57.2785 92.6584 57.7405 93.1157 58.0765 93.713C58.4218 94.3104 58.5945 95.0057 58.5945 95.799C58.5945 96.5924 58.4171 97.2924 58.0625 97.899C57.7171 98.4964 57.2458 98.9584 56.6485 99.285C56.0511 99.6117 55.3885 99.775 54.6605 99.775ZM54.6605 98.655C55.1178 98.655 55.5471 98.5477 55.9485 98.333C56.3498 98.1184 56.6718 97.7964 56.9145 97.367C57.1665 96.9377 57.2925 96.415 57.2925 95.799C57.2925 95.183 57.1711 94.6604 56.9285 94.231C56.6858 93.8017 56.3685 93.4844 55.9765 93.279C55.5845 93.0644 55.1598 92.957 54.7025 92.957C54.2358 92.957 53.8065 93.0644 53.4145 93.279C53.0318 93.4844 52.7238 93.8017 52.4905 94.231C52.2571 94.6604 52.1405 95.183 52.1405 95.799C52.1405 96.4244 52.2525 96.9517 52.4765 97.381C52.7098 97.8104 53.0178 98.1324 53.4005 98.347C53.7831 98.5524 54.2031 98.655 54.6605 98.655ZM62.9855 99.775C62.3975 99.775 61.8702 99.677 61.4035 99.481C60.9369 99.2757 60.5682 98.9957 60.2975 98.641C60.0269 98.277 59.8775 97.8617 59.8495 97.395H61.1655C61.2029 97.7777 61.3802 98.0904 61.6975 98.333C62.0242 98.5757 62.4489 98.697 62.9715 98.697C63.4569 98.697 63.8395 98.5897 64.1195 98.375C64.3995 98.1604 64.5395 97.8897 64.5395 97.563C64.5395 97.227 64.3902 96.9797 64.0915 96.821C63.7929 96.653 63.3309 96.4897 62.7055 96.331C62.1362 96.1817 61.6695 96.0324 61.3055 95.883C60.9509 95.7244 60.6429 95.4957 60.3815 95.197C60.1295 94.889 60.0035 94.4877 60.0035 93.993C60.0035 93.601 60.1202 93.2417 60.3535 92.915C60.5869 92.5884 60.9182 92.3317 61.3475 92.145C61.7769 91.949 62.2669 91.851 62.8175 91.851C63.6669 91.851 64.3529 92.0657 64.8755 92.495C65.3982 92.9244 65.6782 93.5124 65.7155 94.259H64.4415C64.4135 93.8577 64.2502 93.5357 63.9515 93.293C63.6622 93.0504 63.2702 92.929 62.7755 92.929C62.3182 92.929 61.9542 93.027 61.6835 93.223C61.4129 93.419 61.2775 93.6757 61.2775 93.993C61.2775 94.245 61.3569 94.455 61.5155 94.623C61.6835 94.7817 61.8889 94.9124 62.1315 95.015C62.3835 95.1084 62.7289 95.2157 63.1675 95.337C63.7182 95.4864 64.1662 95.6357 64.5115 95.785C64.8569 95.925 65.1509 96.1397 65.3935 96.429C65.6455 96.7184 65.7762 97.0964 65.7855 97.563C65.7855 97.983 65.6689 98.361 65.4355 98.697C65.2022 99.033 64.8709 99.299 64.4415 99.495C64.0215 99.6817 63.5362 99.775 62.9855 99.775ZM69.138 93.027V97.549C69.138 97.9224 69.2173 98.1884 69.376 98.347C69.5346 98.4964 69.81 98.571 70.202 98.571H71.14V99.649H69.992C69.2826 99.649 68.7506 99.4857 68.396 99.159C68.0413 98.8324 67.864 98.2957 67.864 97.549V93.027H66.87V91.977H67.864V90.045H69.138V91.977H71.14V93.027H69.138ZM79.6836 95.519C79.6836 95.7617 79.6696 96.0184 79.6416 96.289H73.5096C73.5563 97.045 73.8129 97.6377 74.2796 98.067C74.7556 98.487 75.3296 98.697 76.0016 98.697C76.5523 98.697 77.0096 98.571 77.3736 98.319C77.7469 98.0577 78.0083 97.7124 78.1576 97.283H79.5296C79.3243 98.0204 78.9136 98.6224 78.2976 99.089C77.6816 99.5464 76.9163 99.775 76.0016 99.775C75.2736 99.775 74.6203 99.6117 74.0416 99.285C73.4723 98.9584 73.0243 98.4964 72.6976 97.899C72.3709 97.2924 72.2076 96.5924 72.2076 95.799C72.2076 95.0057 72.3663 94.3104 72.6836 93.713C73.0009 93.1157 73.4443 92.6584 74.0136 92.341C74.5923 92.0144 75.2549 91.851 76.0016 91.851C76.7296 91.851 77.3736 92.0097 77.9336 92.327C78.4936 92.6444 78.9229 93.083 79.2216 93.643C79.5296 94.1937 79.6836 94.819 79.6836 95.519ZM78.3676 95.253C78.3676 94.7677 78.2603 94.3524 78.0456 94.007C77.8309 93.6524 77.5369 93.3864 77.1636 93.209C76.7996 93.0224 76.3936 92.929 75.9456 92.929C75.3016 92.929 74.7509 93.1344 74.2936 93.545C73.8456 93.9557 73.5889 94.525 73.5236 95.253H78.3676ZM82.6392 93.223C82.8632 92.7844 83.1806 92.4437 83.5912 92.201C84.0112 91.9584 84.5199 91.837 85.1172 91.837V93.153H84.7812C83.3532 93.153 82.6392 93.9277 82.6392 95.477V99.649H81.3652V91.977H82.6392V93.223ZM93.4423 93.027H91.8323V99.649H90.5583V93.027H89.5643V91.977H90.5583V91.431C90.5583 90.5724 90.7776 89.947 91.2163 89.555C91.6643 89.1537 92.3783 88.953 93.3583 88.953V90.017C92.7983 90.017 92.4016 90.129 92.1683 90.353C91.9443 90.5677 91.8323 90.927 91.8323 91.431V91.977H93.4423V93.027ZM98.2737 99.775C97.5551 99.775 96.9017 99.6117 96.3137 99.285C95.7351 98.9584 95.2777 98.4964 94.9417 97.899C94.6151 97.2924 94.4517 96.5924 94.4517 95.799C94.4517 95.015 94.6197 94.3244 94.9557 93.727C95.3011 93.1204 95.7677 92.6584 96.3557 92.341C96.9437 92.0144 97.6017 91.851 98.3297 91.851C99.0577 91.851 99.7157 92.0144 100.304 92.341C100.892 92.6584 101.354 93.1157 101.69 93.713C102.035 94.3104 102.208 95.0057 102.208 95.799C102.208 96.5924 102.03 97.2924 101.676 97.899C101.33 98.4964 100.859 98.9584 100.262 99.285C99.6644 99.6117 99.0017 99.775 98.2737 99.775ZM98.2737 98.655C98.7311 98.655 99.1604 98.5477 99.5617 98.333C99.9631 98.1184 100.285 97.7964 100.528 97.367C100.78 96.9377 100.906 96.415 100.906 95.799C100.906 95.183 100.784 94.6604 100.542 94.231C100.299 93.8017 99.9817 93.4844 99.5897 93.279C99.1977 93.0644 98.7731 92.957 98.3157 92.957C97.8491 92.957 97.4197 93.0644 97.0277 93.279C96.6451 93.4844 96.3371 93.8017 96.1037 94.231C95.8704 94.6604 95.7537 95.183 95.7537 95.799C95.7537 96.4244 95.8657 96.9517 96.0897 97.381C96.3231 97.8104 96.6311 98.1324 97.0137 98.347C97.3964 98.5524 97.8164 98.655 98.2737 98.655ZM110.687 91.977V99.649H109.413V98.515C109.17 98.907 108.829 99.215 108.391 99.439C107.961 99.6537 107.485 99.761 106.963 99.761C106.365 99.761 105.829 99.6397 105.353 99.397C104.877 99.145 104.499 98.7717 104.219 98.277C103.948 97.7824 103.813 97.1804 103.813 96.471V91.977H105.073V96.303C105.073 97.059 105.264 97.6424 105.647 98.053C106.029 98.4544 106.552 98.655 107.215 98.655C107.896 98.655 108.433 98.445 108.825 98.025C109.217 97.605 109.413 96.9937 109.413 96.191V91.977H110.687ZM116.576 91.837C117.509 91.837 118.265 92.1217 118.844 92.691C119.423 93.251 119.712 94.063 119.712 95.127V99.649H118.452V95.309C118.452 94.5437 118.261 93.9604 117.878 93.559C117.495 93.1484 116.973 92.943 116.31 92.943C115.638 92.943 115.101 93.153 114.7 93.573C114.308 93.993 114.112 94.6044 114.112 95.407V99.649H112.838V91.977H114.112V93.069C114.364 92.677 114.705 92.3737 115.134 92.159C115.573 91.9444 116.053 91.837 116.576 91.837ZM121.317 95.785C121.317 95.001 121.476 94.315 121.793 93.727C122.11 93.1297 122.544 92.6677 123.095 92.341C123.655 92.0144 124.28 91.851 124.971 91.851C125.568 91.851 126.124 91.991 126.637 92.271C127.15 92.5417 127.542 92.901 127.813 93.349V89.289H129.101V99.649H127.813V98.207C127.561 98.6644 127.188 99.0424 126.693 99.341C126.198 99.6304 125.62 99.775 124.957 99.775C124.276 99.775 123.655 99.607 123.095 99.271C122.544 98.935 122.11 98.4637 121.793 97.857C121.476 97.2504 121.317 96.5597 121.317 95.785ZM127.813 95.799C127.813 95.2204 127.696 94.7164 127.463 94.287C127.23 93.8577 126.912 93.531 126.511 93.307C126.119 93.0737 125.685 92.957 125.209 92.957C124.733 92.957 124.299 93.069 123.907 93.293C123.515 93.517 123.202 93.8437 122.969 94.273C122.736 94.7024 122.619 95.2064 122.619 95.785C122.619 96.373 122.736 96.8864 122.969 97.325C123.202 97.7544 123.515 98.0857 123.907 98.319C124.299 98.543 124.733 98.655 125.209 98.655C125.685 98.655 126.119 98.543 126.511 98.319C126.912 98.0857 127.23 97.7544 127.463 97.325C127.696 96.8864 127.813 96.3777 127.813 95.799Z"/>
</mask>
<path d="M26.9943 99.649H25.7203L20.5963 91.879V99.649H19.3223V89.877H20.5963L25.7203 97.633V89.877H26.9943V99.649ZM32.512 99.775C31.7933 99.775 31.14 99.6117 30.552 99.285C29.9733 98.9584 29.516 98.4964 29.18 97.899C28.8533 97.2924 28.69 96.5924 28.69 95.799C28.69 95.015 28.858 94.3244 29.194 93.727C29.5393 93.1204 30.006 92.6584 30.594 92.341C31.182 92.0144 31.84 91.851 32.568 91.851C33.296 91.851 33.954 92.0144 34.542 92.341C35.13 92.6584 35.592 93.1157 35.928 93.713C36.2733 94.3104 36.446 95.0057 36.446 95.799C36.446 96.5924 36.2687 97.2924 35.914 97.899C35.5687 98.4964 35.0973 98.9584 34.5 99.285C33.9027 99.6117 33.24 99.775 32.512 99.775ZM32.512 98.655C32.9693 98.655 33.3987 98.5477 33.8 98.333C34.2013 98.1184 34.5233 97.7964 34.766 97.367C35.018 96.9377 35.144 96.415 35.144 95.799C35.144 95.183 35.0227 94.6604 34.78 94.231C34.5373 93.8017 34.22 93.4844 33.828 93.279C33.436 93.0644 33.0113 92.957 32.554 92.957C32.0873 92.957 31.658 93.0644 31.266 93.279C30.8833 93.4844 30.5753 93.8017 30.342 94.231C30.1087 94.6604 29.992 95.183 29.992 95.799C29.992 96.4244 30.104 96.9517 30.328 97.381C30.5613 97.8104 30.8693 98.1324 31.252 98.347C31.6347 98.5524 32.0547 98.655 32.512 98.655ZM43.1275 93.391C43.3795 92.9524 43.7528 92.5884 44.2475 92.299C44.7515 92.0004 45.3348 91.851 45.9975 91.851C46.6788 91.851 47.2948 92.0144 47.8455 92.341C48.4055 92.6677 48.8442 93.1297 49.1615 93.727C49.4788 94.315 49.6375 95.001 49.6375 95.785C49.6375 96.5597 49.4788 97.2504 49.1615 97.857C48.8442 98.4637 48.4055 98.935 47.8455 99.271C47.2948 99.607 46.6788 99.775 45.9975 99.775C45.3442 99.775 44.7655 99.6304 44.2615 99.341C43.7668 99.0424 43.3888 98.6737 43.1275 98.235V103.289H41.8535V91.977H43.1275V93.391ZM48.3355 95.785C48.3355 95.2064 48.2188 94.7024 47.9855 94.273C47.7522 93.8437 47.4348 93.517 47.0335 93.293C46.6415 93.069 46.2075 92.957 45.7315 92.957C45.2648 92.957 44.8308 93.0737 44.4295 93.307C44.0375 93.531 43.7202 93.8624 43.4775 94.301C43.2442 94.7304 43.1275 95.2297 43.1275 95.799C43.1275 96.3777 43.2442 96.8864 43.4775 97.325C43.7202 97.7544 44.0375 98.0857 44.4295 98.319C44.8308 98.543 45.2648 98.655 45.7315 98.655C46.2075 98.655 46.6415 98.543 47.0335 98.319C47.4348 98.0857 47.7522 97.7544 47.9855 97.325C48.2188 96.8864 48.3355 96.373 48.3355 95.785ZM54.6605 99.775C53.9418 99.775 53.2885 99.6117 52.7005 99.285C52.1218 98.9584 51.6645 98.4964 51.3285 97.899C51.0018 97.2924 50.8385 96.5924 50.8385 95.799C50.8385 95.015 51.0065 94.3244 51.3425 93.727C51.6878 93.1204 52.1545 92.6584 52.7425 92.341C53.3305 92.0144 53.9885 91.851 54.7165 91.851C55.4445 91.851 56.1025 92.0144 56.6905 92.341C57.2785 92.6584 57.7405 93.1157 58.0765 93.713C58.4218 94.3104 58.5945 95.0057 58.5945 95.799C58.5945 96.5924 58.4171 97.2924 58.0625 97.899C57.7171 98.4964 57.2458 98.9584 56.6485 99.285C56.0511 99.6117 55.3885 99.775 54.6605 99.775ZM54.6605 98.655C55.1178 98.655 55.5471 98.5477 55.9485 98.333C56.3498 98.1184 56.6718 97.7964 56.9145 97.367C57.1665 96.9377 57.2925 96.415 57.2925 95.799C57.2925 95.183 57.1711 94.6604 56.9285 94.231C56.6858 93.8017 56.3685 93.4844 55.9765 93.279C55.5845 93.0644 55.1598 92.957 54.7025 92.957C54.2358 92.957 53.8065 93.0644 53.4145 93.279C53.0318 93.4844 52.7238 93.8017 52.4905 94.231C52.2571 94.6604 52.1405 95.183 52.1405 95.799C52.1405 96.4244 52.2525 96.9517 52.4765 97.381C52.7098 97.8104 53.0178 98.1324 53.4005 98.347C53.7831 98.5524 54.2031 98.655 54.6605 98.655ZM62.9855 99.775C62.3975 99.775 61.8702 99.677 61.4035 99.481C60.9369 99.2757 60.5682 98.9957 60.2975 98.641C60.0269 98.277 59.8775 97.8617 59.8495 97.395H61.1655C61.2029 97.7777 61.3802 98.0904 61.6975 98.333C62.0242 98.5757 62.4489 98.697 62.9715 98.697C63.4569 98.697 63.8395 98.5897 64.1195 98.375C64.3995 98.1604 64.5395 97.8897 64.5395 97.563C64.5395 97.227 64.3902 96.9797 64.0915 96.821C63.7929 96.653 63.3309 96.4897 62.7055 96.331C62.1362 96.1817 61.6695 96.0324 61.3055 95.883C60.9509 95.7244 60.6429 95.4957 60.3815 95.197C60.1295 94.889 60.0035 94.4877 60.0035 93.993C60.0035 93.601 60.1202 93.2417 60.3535 92.915C60.5869 92.5884 60.9182 92.3317 61.3475 92.145C61.7769 91.949 62.2669 91.851 62.8175 91.851C63.6669 91.851 64.3529 92.0657 64.8755 92.495C65.3982 92.9244 65.6782 93.5124 65.7155 94.259H64.4415C64.4135 93.8577 64.2502 93.5357 63.9515 93.293C63.6622 93.0504 63.2702 92.929 62.7755 92.929C62.3182 92.929 61.9542 93.027 61.6835 93.223C61.4129 93.419 61.2775 93.6757 61.2775 93.993C61.2775 94.245 61.3569 94.455 61.5155 94.623C61.6835 94.7817 61.8889 94.9124 62.1315 95.015C62.3835 95.1084 62.7289 95.2157 63.1675 95.337C63.7182 95.4864 64.1662 95.6357 64.5115 95.785C64.8569 95.925 65.1509 96.1397 65.3935 96.429C65.6455 96.7184 65.7762 97.0964 65.7855 97.563C65.7855 97.983 65.6689 98.361 65.4355 98.697C65.2022 99.033 64.8709 99.299 64.4415 99.495C64.0215 99.6817 63.5362 99.775 62.9855 99.775ZM69.138 93.027V97.549C69.138 97.9224 69.2173 98.1884 69.376 98.347C69.5346 98.4964 69.81 98.571 70.202 98.571H71.14V99.649H69.992C69.2826 99.649 68.7506 99.4857 68.396 99.159C68.0413 98.8324 67.864 98.2957 67.864 97.549V93.027H66.87V91.977H67.864V90.045H69.138V91.977H71.14V93.027H69.138ZM79.6836 95.519C79.6836 95.7617 79.6696 96.0184 79.6416 96.289H73.5096C73.5563 97.045 73.8129 97.6377 74.2796 98.067C74.7556 98.487 75.3296 98.697 76.0016 98.697C76.5523 98.697 77.0096 98.571 77.3736 98.319C77.7469 98.0577 78.0083 97.7124 78.1576 97.283H79.5296C79.3243 98.0204 78.9136 98.6224 78.2976 99.089C77.6816 99.5464 76.9163 99.775 76.0016 99.775C75.2736 99.775 74.6203 99.6117 74.0416 99.285C73.4723 98.9584 73.0243 98.4964 72.6976 97.899C72.3709 97.2924 72.2076 96.5924 72.2076 95.799C72.2076 95.0057 72.3663 94.3104 72.6836 93.713C73.0009 93.1157 73.4443 92.6584 74.0136 92.341C74.5923 92.0144 75.2549 91.851 76.0016 91.851C76.7296 91.851 77.3736 92.0097 77.9336 92.327C78.4936 92.6444 78.9229 93.083 79.2216 93.643C79.5296 94.1937 79.6836 94.819 79.6836 95.519ZM78.3676 95.253C78.3676 94.7677 78.2603 94.3524 78.0456 94.007C77.8309 93.6524 77.5369 93.3864 77.1636 93.209C76.7996 93.0224 76.3936 92.929 75.9456 92.929C75.3016 92.929 74.7509 93.1344 74.2936 93.545C73.8456 93.9557 73.5889 94.525 73.5236 95.253H78.3676ZM82.6392 93.223C82.8632 92.7844 83.1806 92.4437 83.5912 92.201C84.0112 91.9584 84.5199 91.837 85.1172 91.837V93.153H84.7812C83.3532 93.153 82.6392 93.9277 82.6392 95.477V99.649H81.3652V91.977H82.6392V93.223ZM93.4423 93.027H91.8323V99.649H90.5583V93.027H89.5643V91.977H90.5583V91.431C90.5583 90.5724 90.7776 89.947 91.2163 89.555C91.6643 89.1537 92.3783 88.953 93.3583 88.953V90.017C92.7983 90.017 92.4016 90.129 92.1683 90.353C91.9443 90.5677 91.8323 90.927 91.8323 91.431V91.977H93.4423V93.027ZM98.2737 99.775C97.5551 99.775 96.9017 99.6117 96.3137 99.285C95.7351 98.9584 95.2777 98.4964 94.9417 97.899C94.6151 97.2924 94.4517 96.5924 94.4517 95.799C94.4517 95.015 94.6197 94.3244 94.9557 93.727C95.3011 93.1204 95.7677 92.6584 96.3557 92.341C96.9437 92.0144 97.6017 91.851 98.3297 91.851C99.0577 91.851 99.7157 92.0144 100.304 92.341C100.892 92.6584 101.354 93.1157 101.69 93.713C102.035 94.3104 102.208 95.0057 102.208 95.799C102.208 96.5924 102.03 97.2924 101.676 97.899C101.33 98.4964 100.859 98.9584 100.262 99.285C99.6644 99.6117 99.0017 99.775 98.2737 99.775ZM98.2737 98.655C98.7311 98.655 99.1604 98.5477 99.5617 98.333C99.9631 98.1184 100.285 97.7964 100.528 97.367C100.78 96.9377 100.906 96.415 100.906 95.799C100.906 95.183 100.784 94.6604 100.542 94.231C100.299 93.8017 99.9817 93.4844 99.5897 93.279C99.1977 93.0644 98.7731 92.957 98.3157 92.957C97.8491 92.957 97.4197 93.0644 97.0277 93.279C96.6451 93.4844 96.3371 93.8017 96.1037 94.231C95.8704 94.6604 95.7537 95.183 95.7537 95.799C95.7537 96.4244 95.8657 96.9517 96.0897 97.381C96.3231 97.8104 96.6311 98.1324 97.0137 98.347C97.3964 98.5524 97.8164 98.655 98.2737 98.655ZM110.687 91.977V99.649H109.413V98.515C109.17 98.907 108.829 99.215 108.391 99.439C107.961 99.6537 107.485 99.761 106.963 99.761C106.365 99.761 105.829 99.6397 105.353 99.397C104.877 99.145 104.499 98.7717 104.219 98.277C103.948 97.7824 103.813 97.1804 103.813 96.471V91.977H105.073V96.303C105.073 97.059 105.264 97.6424 105.647 98.053C106.029 98.4544 106.552 98.655 107.215 98.655C107.896 98.655 108.433 98.445 108.825 98.025C109.217 97.605 109.413 96.9937 109.413 96.191V91.977H110.687ZM116.576 91.837C117.509 91.837 118.265 92.1217 118.844 92.691C119.423 93.251 119.712 94.063 119.712 95.127V99.649H118.452V95.309C118.452 94.5437 118.261 93.9604 117.878 93.559C117.495 93.1484 116.973 92.943 116.31 92.943C115.638 92.943 115.101 93.153 114.7 93.573C114.308 93.993 114.112 94.6044 114.112 95.407V99.649H112.838V91.977H114.112V93.069C114.364 92.677 114.705 92.3737 115.134 92.159C115.573 91.9444 116.053 91.837 116.576 91.837ZM121.317 95.785C121.317 95.001 121.476 94.315 121.793 93.727C122.11 93.1297 122.544 92.6677 123.095 92.341C123.655 92.0144 124.28 91.851 124.971 91.851C125.568 91.851 126.124 91.991 126.637 92.271C127.15 92.5417 127.542 92.901 127.813 93.349V89.289H129.101V99.649H127.813V98.207C127.561 98.6644 127.188 99.0424 126.693 99.341C126.198 99.6304 125.62 99.775 124.957 99.775C124.276 99.775 123.655 99.607 123.095 99.271C122.544 98.935 122.11 98.4637 121.793 97.857C121.476 97.2504 121.317 96.5597 121.317 95.785ZM127.813 95.799C127.813 95.2204 127.696 94.7164 127.463 94.287C127.23 93.8577 126.912 93.531 126.511 93.307C126.119 93.0737 125.685 92.957 125.209 92.957C124.733 92.957 124.299 93.069 123.907 93.293C123.515 93.517 123.202 93.8437 122.969 94.273C122.736 94.7024 122.619 95.2064 122.619 95.785C122.619 96.373 122.736 96.8864 122.969 97.325C123.202 97.7544 123.515 98.0857 123.907 98.319C124.299 98.543 124.733 98.655 125.209 98.655C125.685 98.655 126.119 98.543 126.511 98.319C126.912 98.0857 127.23 97.7544 127.463 97.325C127.696 96.8864 127.813 96.3777 127.813 95.799Z" fill="#DBDBDB"/>
<path d="M26.9943 99.649V100.649H27.9943V99.649H26.9943ZM25.7203 99.649L24.8854 100.2L25.1819 100.649H25.7203V99.649ZM20.5963 91.879L21.4311 91.3285L19.5963 88.5462V91.879H20.5963ZM20.5963 99.649V100.649H21.5963V99.649H20.5963ZM19.3223 99.649H18.3223V100.649H19.3223V99.649ZM19.3223 89.877V88.877H18.3223V89.877H19.3223ZM20.5963 89.877L21.4306 89.3258L21.1341 88.877H20.5963V89.877ZM25.7203 97.633L24.8859 98.1843L26.7203 100.961V97.633H25.7203ZM25.7203 89.877V88.877H24.7203V89.877H25.7203ZM26.9943 89.877H27.9943V88.877H26.9943V89.877ZM26.9943 99.649V98.649H25.7203V99.649V100.649H26.9943V99.649ZM25.7203 99.649L26.5551 99.0985L21.4311 91.3285L20.5963 91.879L19.7614 92.4296L24.8854 100.2L25.7203 99.649ZM20.5963 91.879H19.5963V99.649H20.5963H21.5963V91.879H20.5963ZM20.5963 99.649V98.649H19.3223V99.649V100.649H20.5963V99.649ZM19.3223 99.649H20.3223V89.877H19.3223H18.3223V99.649H19.3223ZM19.3223 89.877V90.877H20.5963V89.877V88.877H19.3223V89.877ZM20.5963 89.877L19.7619 90.4283L24.8859 98.1843L25.7203 97.633L26.5546 97.0818L21.4306 89.3258L20.5963 89.877ZM25.7203 97.633H26.7203V89.877H25.7203H24.7203V97.633H25.7203ZM25.7203 89.877V90.877H26.9943V89.877V88.877H25.7203V89.877ZM26.9943 89.877H25.9943V99.649H26.9943H27.9943V89.877H26.9943ZM30.552 99.285L30.0604 100.156L30.0664 100.159L30.552 99.285ZM29.18 97.899L28.2995 98.3731L28.3039 98.3813L28.3084 98.3893L29.18 97.899ZM29.194 93.727L28.3249 93.2323L28.3224 93.2368L29.194 93.727ZM30.594 92.341L31.069 93.2211L31.0797 93.2152L30.594 92.341ZM34.542 92.341L34.0563 93.2153L34.0671 93.2211L34.542 92.341ZM35.928 93.713L35.0564 94.2033L35.0623 94.2136L35.928 93.713ZM35.914 97.899L35.0507 97.3943L35.0483 97.3985L35.914 97.899ZM34.5 99.285L34.9798 100.162L34.9798 100.162L34.5 99.285ZM34.766 97.367L33.9036 96.8608L33.8995 96.8679L33.8955 96.875L34.766 97.367ZM33.828 93.279L33.3477 94.1561L33.3558 94.1606L33.364 94.1649L33.828 93.279ZM31.266 93.279L31.7388 94.1602L31.7463 94.1561L31.266 93.279ZM30.342 94.231L31.2206 94.7086L31.2206 94.7086L30.342 94.231ZM30.328 97.381L29.4414 97.8436L29.4453 97.8511L29.4494 97.8586L30.328 97.381ZM31.252 98.347L30.7628 99.2192L30.7709 99.2238L30.7792 99.2282L31.252 98.347ZM32.512 99.775V98.775C31.9513 98.775 31.4669 98.6494 31.0377 98.4109L30.552 99.285L30.0664 100.159C30.8131 100.574 31.6354 100.775 32.512 100.775V99.775ZM30.552 99.285L31.0436 98.4142C30.6291 98.1802 30.301 97.8522 30.0516 97.4088L29.18 97.899L28.3084 98.3893C28.731 99.1406 29.3176 99.7365 30.0604 100.156L30.552 99.285ZM29.18 97.899L30.0605 97.4249C29.8234 96.9847 29.69 96.4521 29.69 95.799H28.69H27.69C27.69 96.7326 27.8833 97.6001 28.2995 98.3731L29.18 97.899ZM28.69 95.799H29.69C29.69 95.1617 29.8253 94.6445 30.0656 94.2173L29.194 93.727L28.3224 93.2368C27.8908 94.0042 27.69 94.8684 27.69 95.799H28.69ZM29.194 93.727L30.0631 94.2217C30.3201 93.7703 30.6534 93.4453 31.0689 93.2211L30.594 92.341L30.1191 91.461C29.3586 91.8714 28.7586 92.4705 28.3249 93.2323L29.194 93.727ZM30.594 92.341L31.0797 93.2152C31.507 92.9778 31.9956 92.851 32.568 92.851V91.851V90.851C31.6845 90.851 30.857 91.051 30.1084 91.4669L30.594 92.341ZM32.568 91.851V92.851C33.1405 92.851 33.629 92.9778 34.0564 93.2152L34.542 92.341L35.0277 91.4669C34.279 91.051 33.4516 90.851 32.568 90.851V91.851ZM34.542 92.341L34.0671 93.2211C34.4842 93.4462 34.8106 93.7663 35.0564 94.2033L35.928 93.713L36.7996 93.2228C36.3734 92.4651 35.7758 91.8706 35.0169 91.461L34.542 92.341ZM35.928 93.713L35.0623 94.2136C35.3072 94.6372 35.446 95.1547 35.446 95.799H36.446H37.446C37.446 94.8567 37.2395 93.9836 36.7937 93.2125L35.928 93.713ZM36.446 95.799H35.446C35.446 96.4383 35.3048 96.9598 35.0507 97.3944L35.914 97.899L36.7773 98.4037C37.2326 97.625 37.446 96.7464 37.446 95.799H36.446ZM35.914 97.899L35.0483 97.3985C34.7933 97.8395 34.4545 98.1701 34.0202 98.4077L34.5 99.285L34.9798 100.162C35.7402 99.7466 36.344 99.1532 36.7797 98.3996L35.914 97.899ZM34.5 99.285L34.0202 98.4077C33.5802 98.6483 33.0843 98.775 32.512 98.775V99.775V100.775C33.3957 100.775 34.2252 100.575 34.9798 100.162L34.5 99.285ZM32.512 98.655V99.655C33.1331 99.655 33.7245 99.5075 34.2717 99.2148L33.8 98.333L33.3284 97.4513C33.0729 97.5879 32.8056 97.655 32.512 97.655V98.655ZM33.8 98.333L34.2717 99.2148C34.8542 98.9032 35.3087 98.4392 35.6366 97.8591L34.766 97.367L33.8955 96.875C33.738 97.1536 33.5485 97.3335 33.3284 97.4513L33.8 98.333ZM34.766 97.367L35.6284 97.8732C35.9896 97.2579 36.144 96.5511 36.144 95.799H35.144H34.144C34.144 96.279 34.0464 96.6175 33.9036 96.8608L34.766 97.367ZM35.144 95.799H36.144C36.144 95.053 35.9968 94.3515 35.6506 93.739L34.78 94.231L33.9094 94.7231C34.0486 94.9693 34.144 95.3131 34.144 95.799H35.144ZM34.78 94.231L35.6506 93.739C35.3244 93.1618 34.8738 92.6979 34.292 92.3932L33.828 93.279L33.364 94.1649C33.5663 94.2708 33.7503 94.4416 33.9094 94.7231L34.78 94.231ZM33.828 93.279L34.3083 92.402C33.7655 92.1047 33.1752 91.957 32.554 91.957V92.957V93.957C32.8475 93.957 33.1065 94.024 33.3477 94.1561L33.828 93.279ZM32.554 92.957V91.957C31.9272 91.957 31.3315 92.103 30.7857 92.402L31.266 93.279L31.7463 94.1561C31.9845 94.0257 32.2475 93.957 32.554 93.957V92.957ZM31.266 93.279L30.7932 92.3979C30.2179 92.7066 29.7777 93.1751 29.4634 93.7535L30.342 94.231L31.2206 94.7086C31.373 94.4283 31.5488 94.2622 31.7388 94.1602L31.266 93.279ZM30.342 94.231L29.4634 93.7535C29.1323 94.3628 28.992 95.0589 28.992 95.799H29.992H30.992C30.992 95.3072 31.0851 94.958 31.2206 94.7086L30.342 94.231ZM29.992 95.799H28.992C28.992 96.54 29.1244 97.236 29.4414 97.8436L30.328 97.381L31.2146 96.9185C31.0836 96.6675 30.992 96.3088 30.992 95.799H29.992ZM30.328 97.381L29.4494 97.8586C29.7622 98.4341 30.1974 98.9021 30.7628 99.2192L31.252 98.347L31.7413 97.4749C31.5413 97.3627 31.3605 97.1867 31.2066 96.9035L30.328 97.381ZM31.252 98.347L30.7792 99.2282C31.315 99.5157 31.8987 99.655 32.512 99.655V98.655V97.655C32.2106 97.655 31.9543 97.589 31.7248 97.4659L31.252 98.347ZM43.1275 93.391H42.1275V97.1393L43.9946 93.8892L43.1275 93.391ZM44.2475 92.299L44.7524 93.1622L44.7573 93.1593L44.2475 92.299ZM47.8455 92.341L47.3353 93.2011L47.3416 93.2048L47.8455 92.341ZM49.1615 93.727L48.2784 94.1962L48.2815 94.202L49.1615 93.727ZM49.1615 97.857L50.0476 98.3205L50.0476 98.3205L49.1615 97.857ZM47.8455 99.271L47.331 98.4135L47.3246 98.4174L47.8455 99.271ZM44.2615 99.341L43.7446 100.197L43.7541 100.203L43.7636 100.208L44.2615 99.341ZM43.1275 98.235L43.9866 97.7232L42.1275 94.6026V98.235H43.1275ZM43.1275 103.289V104.289H44.1275V103.289H43.1275ZM41.8535 103.289H40.8535V104.289H41.8535V103.289ZM41.8535 91.977V90.977H40.8535V91.977H41.8535ZM43.1275 91.977H44.1275V90.977H43.1275V91.977ZM47.9855 94.273L48.8641 93.7955L48.8641 93.7955L47.9855 94.273ZM47.0335 93.293L46.5373 94.1613L46.5461 94.1662L47.0335 93.293ZM44.4295 93.307L44.9257 94.1753L44.9321 94.1716L44.4295 93.307ZM43.4775 94.301L42.6025 93.817L42.5989 93.8235L43.4775 94.301ZM43.4775 97.325L42.5946 97.7947L42.6007 97.806L42.6069 97.8171L43.4775 97.325ZM44.4295 98.319L43.918 99.1783L43.93 99.1855L43.9421 99.1922L44.4295 98.319ZM47.0335 98.319L47.5297 99.1873L47.5361 99.1836L47.0335 98.319ZM47.9855 97.325L48.8642 97.8026L48.8684 97.7947L47.9855 97.325ZM43.1275 93.391L43.9946 93.8892C44.1487 93.6209 44.3879 93.3754 44.7524 93.1622L44.2475 92.299L43.7426 91.4359C43.1178 91.8013 42.6103 92.2839 42.2604 92.8929L43.1275 93.391ZM44.2475 92.299L44.7573 93.1593C45.0876 92.9636 45.4902 92.851 45.9975 92.851V91.851V90.851C45.1795 90.851 44.4155 91.0371 43.7377 91.4388L44.2475 92.299ZM45.9975 91.851V92.851C46.5113 92.851 46.949 92.972 47.3353 93.2011L47.8455 92.341L48.3557 91.481C47.6407 91.0568 46.8464 90.851 45.9975 90.851V91.851ZM47.8455 92.341L47.3416 93.2048C47.7338 93.4336 48.0444 93.7557 48.2784 94.1962L49.1615 93.727L50.0446 93.2579C49.644 92.5038 49.0772 91.9018 48.3494 91.4773L47.8455 92.341ZM49.1615 93.727L48.2815 94.202C48.5074 94.6207 48.6375 95.138 48.6375 95.785H49.6375H50.6375C50.6375 94.864 50.4503 94.0094 50.0415 93.2521L49.1615 93.727ZM49.6375 95.785H48.6375C48.6375 96.4197 48.5086 96.9478 48.2754 97.3936L49.1615 97.857L50.0476 98.3205C50.4491 97.553 50.6375 96.6997 50.6375 95.785H49.6375ZM49.1615 97.857L48.2754 97.3935C48.039 97.8455 47.7255 98.1769 47.331 98.4136L47.8455 99.271L48.36 100.129C49.0856 99.6932 49.6493 99.082 50.0476 98.3205L49.1615 97.857ZM47.8455 99.271L47.3246 98.4174C46.9398 98.6522 46.5059 98.775 45.9975 98.775V99.775V100.775C46.8518 100.775 47.6499 100.562 48.3664 100.125L47.8455 99.271ZM45.9975 99.775V98.775C45.4967 98.775 45.0938 98.6658 44.7594 98.4738L44.2615 99.341L43.7636 100.208C44.4373 100.595 45.1916 100.775 45.9975 100.775V99.775ZM44.2615 99.341L44.7784 98.485C44.4056 98.2599 44.1533 98.0031 43.9866 97.7232L43.1275 98.235L42.2684 98.7469C42.6243 99.3443 43.1281 99.8249 43.7446 100.197L44.2615 99.341ZM43.1275 98.235H42.1275V103.289H43.1275H44.1275V98.235H43.1275ZM43.1275 103.289V102.289H41.8535V103.289V104.289H43.1275V103.289ZM41.8535 103.289H42.8535V91.977H41.8535H40.8535V103.289H41.8535ZM41.8535 91.977V92.977H43.1275V91.977V90.977H41.8535V91.977ZM43.1275 91.977H42.1275V93.391H43.1275H44.1275V91.977H43.1275ZM48.3355 95.785H49.3355C49.3355 95.0703 49.1906 94.3962 48.8641 93.7955L47.9855 94.273L47.1069 94.7506C47.2471 95.0085 47.3355 95.3425 47.3355 95.785H48.3355ZM47.9855 94.273L48.8641 93.7955C48.5464 93.2109 48.098 92.742 47.5209 92.4199L47.0335 93.293L46.5461 94.1662C46.7717 94.2921 46.9579 94.4765 47.1069 94.7506L47.9855 94.273ZM47.0335 93.293L47.5297 92.4248C46.9783 92.1097 46.3717 91.957 45.7315 91.957V92.957V93.957C46.0433 93.957 46.3048 94.0284 46.5374 94.1613L47.0335 93.293ZM45.7315 92.957V91.957C45.0893 91.957 44.4817 92.12 43.9269 92.4425L44.4295 93.307L44.9321 94.1716C45.18 94.0275 45.4404 93.957 45.7315 93.957V92.957ZM44.4295 93.307L43.9334 92.4388C43.3651 92.7635 42.9238 93.2362 42.6025 93.817L43.4775 94.301L44.3525 94.7851C44.5166 94.4886 44.7099 94.2986 44.9257 94.1753L44.4295 93.307ZM43.4775 94.301L42.5989 93.8235C42.2737 94.422 42.1275 95.0906 42.1275 95.799H43.1275H44.1275C44.1275 95.3688 44.2147 95.0388 44.3561 94.7786L43.4775 94.301ZM43.1275 95.799H42.1275C42.1275 96.5144 42.2726 97.1893 42.5946 97.7947L43.4775 97.325L44.3604 96.8554C44.2157 96.5835 44.1275 96.241 44.1275 95.799H43.1275ZM43.4775 97.325L42.6069 97.8171C42.9281 98.3854 43.3644 98.8488 43.918 99.1783L44.4295 98.319L44.941 97.4598C44.7107 97.3226 44.5122 97.1234 44.3481 96.833L43.4775 97.325ZM44.4295 98.319L43.9421 99.1922C44.4948 99.5007 45.097 99.655 45.7315 99.655V98.655V97.655C45.4327 97.655 45.1669 97.5854 44.9169 97.4459L44.4295 98.319ZM45.7315 98.655V99.655C46.3717 99.655 46.9783 99.5024 47.5297 99.1873L47.0335 98.319L46.5374 97.4508C46.3048 97.5837 46.0433 97.655 45.7315 97.655V98.655ZM47.0335 98.319L47.5361 99.1836C48.1044 98.8532 48.5481 98.3841 48.8641 97.8026L47.9855 97.325L47.1069 96.8475C46.9563 97.1247 46.7653 97.3182 46.5309 97.4545L47.0335 98.319ZM47.9855 97.325L48.8684 97.7947C49.1916 97.1871 49.3355 96.5068 49.3355 95.785H48.3355H47.3355C47.3355 96.2393 47.2461 96.5857 47.1026 96.8554L47.9855 97.325ZM52.7005 99.285L52.2088 100.156L52.2148 100.159L52.7005 99.285ZM51.3285 97.899L50.448 98.3731L50.4524 98.3813L50.4569 98.3893L51.3285 97.899ZM51.3425 93.727L50.4734 93.2323L50.4709 93.2368L51.3425 93.727ZM52.7425 92.341L53.2174 93.2211L53.2281 93.2152L52.7425 92.341ZM56.6905 92.341L56.2048 93.2153L56.2155 93.2211L56.6905 92.341ZM58.0765 93.713L57.2048 94.2033L57.2107 94.2136L58.0765 93.713ZM58.0625 97.899L57.1991 97.3943L57.1967 97.3985L58.0625 97.899ZM56.6485 99.285L57.1283 100.162L57.1283 100.162L56.6485 99.285ZM56.9145 97.367L56.052 96.8608L56.0479 96.8679L56.0439 96.875L56.9145 97.367ZM55.9765 93.279L55.4961 94.1561L55.5042 94.1606L55.5124 94.1649L55.9765 93.279ZM53.4145 93.279L53.8873 94.1602L53.8948 94.1561L53.4145 93.279ZM52.4905 94.231L53.3691 94.7086L53.3691 94.7086L52.4905 94.231ZM52.4765 97.381L51.5899 97.8436L51.5938 97.8511L51.5978 97.8586L52.4765 97.381ZM53.4005 98.347L52.9112 99.2192L52.9194 99.2238L52.9276 99.2282L53.4005 98.347ZM54.6605 99.775V98.775C54.0997 98.775 53.6154 98.6494 53.1861 98.4109L52.7005 99.285L52.2148 100.159C52.9615 100.574 53.7838 100.775 54.6605 100.775V99.775ZM52.7005 99.285L53.192 98.4142C52.7776 98.1802 52.4494 97.8522 52.2 97.4088L51.3285 97.899L50.4569 98.3893C50.8795 99.1406 51.466 99.7365 52.2089 100.156L52.7005 99.285ZM51.3285 97.899L52.2089 97.4249C51.9719 96.9847 51.8385 96.4521 51.8385 95.799H50.8385H49.8385C49.8385 96.7326 50.0317 97.6001 50.448 98.3731L51.3285 97.899ZM50.8385 95.799H51.8385C51.8385 95.1617 51.9737 94.6445 52.214 94.2173L51.3425 93.727L50.4709 93.2368C50.0392 94.0042 49.8385 94.8684 49.8385 95.799H50.8385ZM51.3425 93.727L52.2115 94.2217C52.4685 93.7703 52.8018 93.4453 53.2174 93.2211L52.7425 92.341L52.2675 91.461C51.5071 91.8714 50.9071 92.4705 50.4734 93.2323L51.3425 93.727ZM52.7425 92.341L53.2281 93.2152C53.6554 92.9778 54.144 92.851 54.7165 92.851V91.851V90.851C53.8329 90.851 53.0055 91.051 52.2568 91.4669L52.7425 92.341ZM54.7165 91.851V92.851C55.2889 92.851 55.7775 92.9778 56.2048 93.2152L56.6905 92.341L57.1761 91.4669C56.4275 91.051 55.6 90.851 54.7165 90.851V91.851ZM56.6905 92.341L56.2155 93.2211C56.6327 93.4462 56.9591 93.7663 57.2049 94.2033L58.0765 93.713L58.948 93.2228C58.5218 92.4651 57.9242 91.8706 57.1654 91.461L56.6905 92.341ZM58.0765 93.713L57.2107 94.2136C57.4556 94.6372 57.5945 95.1547 57.5945 95.799H58.5945H59.5945C59.5945 94.8567 59.3879 93.9836 58.9422 93.2125L58.0765 93.713ZM58.5945 95.799H57.5945C57.5945 96.4383 57.4532 96.9598 57.1992 97.3944L58.0625 97.899L58.9257 98.4037C59.381 97.625 59.5945 96.7464 59.5945 95.799H58.5945ZM58.0625 97.899L57.1967 97.3985C56.9418 97.8395 56.603 98.1701 56.1686 98.4077L56.6485 99.285L57.1283 100.162C57.8886 99.7466 58.4925 99.1532 58.9282 98.3996L58.0625 97.899ZM56.6485 99.285L56.1686 98.4077C55.7286 98.6483 55.2327 98.775 54.6605 98.775V99.775V100.775C55.5442 100.775 56.3736 100.575 57.1283 100.162L56.6485 99.285ZM54.6605 98.655V99.655C55.2815 99.655 55.8729 99.5075 56.4201 99.2148L55.9485 98.333L55.4768 97.4513C55.2213 97.5879 54.9541 97.655 54.6605 97.655V98.655ZM55.9485 98.333L56.4201 99.2148C57.0026 98.9032 57.4571 98.4392 57.785 97.8591L56.9145 97.367L56.0439 96.875C55.8864 97.1536 55.6969 97.3335 55.4768 97.4513L55.9485 98.333ZM56.9145 97.367L57.7769 97.8732C58.138 97.2579 58.2925 96.5511 58.2925 95.799H57.2925H56.2925C56.2925 96.279 56.1949 96.6175 56.052 96.8608L56.9145 97.367ZM57.2925 95.799H58.2925C58.2925 95.053 58.1452 94.3515 57.799 93.739L56.9285 94.231L56.0579 94.7231C56.197 94.9693 56.2925 95.3131 56.2925 95.799H57.2925ZM56.9285 94.231L57.799 93.739C57.4728 93.1618 57.0222 92.6979 56.4405 92.3932L55.9765 93.279L55.5124 94.1649C55.7147 94.2708 55.8988 94.4416 56.0579 94.7231L56.9285 94.231ZM55.9765 93.279L56.4568 92.402C55.914 92.1047 55.3236 91.957 54.7025 91.957V92.957V93.957C54.996 93.957 55.2549 94.024 55.4961 94.1561L55.9765 93.279ZM54.7025 92.957V91.957C54.0756 91.957 53.48 92.103 52.9341 92.402L53.4145 93.279L53.8948 94.1561C54.1329 94.0257 54.396 93.957 54.7025 93.957V92.957ZM53.4145 93.279L52.9416 92.3979C52.3663 92.7066 51.9262 93.1751 51.6118 93.7535L52.4905 94.231L53.3691 94.7086C53.5214 94.4283 53.6972 94.2622 53.8873 94.1602L53.4145 93.279ZM52.4905 94.231L51.6118 93.7535C51.2807 94.3628 51.1405 95.0589 51.1405 95.799H52.1405H53.1405C53.1405 95.3072 53.2335 94.958 53.3691 94.7086L52.4905 94.231ZM52.1405 95.799H51.1405C51.1405 96.54 51.2728 97.236 51.5899 97.8436L52.4765 97.381L53.363 96.9185C53.2321 96.6675 53.1405 96.3088 53.1405 95.799H52.1405ZM52.4765 97.381L51.5978 97.8586C51.9106 98.4341 52.3459 98.9021 52.9112 99.2192L53.4005 98.347L53.8897 97.4749C53.6897 97.3627 53.509 97.1867 53.3551 96.9035L52.4765 97.381ZM53.4005 98.347L52.9276 99.2282C53.4635 99.5157 54.0472 99.655 54.6605 99.655V98.655V97.655C54.3591 97.655 54.1028 97.589 53.8733 97.4659L53.4005 98.347ZM61.4035 99.481L61.0008 100.396L61.0085 100.4L61.0163 100.403L61.4035 99.481ZM60.2975 98.641L59.495 99.2378L59.5026 99.2477L60.2975 98.641ZM59.8495 97.395V96.395H58.7877L58.8513 97.4549L59.8495 97.395ZM61.1655 97.395L62.1608 97.2979L62.0727 96.395H61.1655V97.395ZM61.6975 98.333L61.09 99.1275L61.1012 99.1358L61.6975 98.333ZM64.0915 96.821L63.6013 97.6926L63.6118 97.6985L63.6224 97.7042L64.0915 96.821ZM62.7055 96.331L62.4518 97.2984L62.4596 97.3003L62.7055 96.331ZM61.3055 95.883L60.8972 96.7959L60.9115 96.8023L60.926 96.8082L61.3055 95.883ZM60.3815 95.197L59.6076 95.8303L59.6181 95.8431L59.629 95.8556L60.3815 95.197ZM60.3535 92.915L59.5398 92.3338L59.5398 92.3338L60.3535 92.915ZM61.3475 92.145L61.7463 93.0621L61.7546 93.0585L61.7628 93.0547L61.3475 92.145ZM64.8755 92.495L64.2408 93.2678L64.8755 92.495ZM65.7155 94.259V95.259H66.7668L66.7143 94.2091L65.7155 94.259ZM64.4415 94.259L63.444 94.3286L63.5089 95.259H64.4415V94.259ZM63.9515 93.293L63.3089 94.0592L63.3149 94.0642L63.3209 94.0692L63.9515 93.293ZM61.6835 93.223L61.097 92.4131L61.097 92.4131L61.6835 93.223ZM61.5155 94.623L60.7885 95.3097L60.8081 95.3304L60.8289 95.3501L61.5155 94.623ZM62.1315 95.015L61.7419 95.936L61.7629 95.9449L61.7842 95.9528L62.1315 95.015ZM63.1675 95.337L62.9009 96.3009L62.9058 96.3022L63.1675 95.337ZM64.5115 95.785L64.1146 96.7029L64.1252 96.7075L64.1358 96.7118L64.5115 95.785ZM65.3935 96.429L64.6273 97.0717L64.6333 97.0788L64.6394 97.0858L65.3935 96.429ZM65.7855 97.563H66.7855V97.553L66.7853 97.5431L65.7855 97.563ZM65.4355 98.697L64.6142 98.1267L64.6142 98.1267L65.4355 98.697ZM64.4415 99.495L64.8477 100.409L64.8568 100.405L64.4415 99.495ZM62.9855 99.775V98.775C62.5092 98.775 62.1166 98.6959 61.7908 98.5591L61.4035 99.481L61.0163 100.403C61.6238 100.658 62.2858 100.775 62.9855 100.775V99.775ZM61.4035 99.481L61.8063 98.5657C61.472 98.4186 61.2467 98.2365 61.0925 98.0344L60.2975 98.641L59.5026 99.2477C59.8897 99.7549 60.4018 100.133 61.0008 100.396L61.4035 99.481ZM60.2975 98.641L61.1 98.0443C60.9491 97.8414 60.8645 97.614 60.8477 97.3352L59.8495 97.395L58.8513 97.4549C58.8906 98.1095 59.1046 98.7127 59.4951 99.2378L60.2975 98.641ZM59.8495 97.395V98.395H61.1655V97.395V96.395H59.8495V97.395ZM61.1655 97.395L60.1703 97.4921C60.2357 98.1629 60.562 98.7236 61.0901 99.1274L61.6975 98.333L62.305 97.5387C62.1983 97.4571 62.17 97.3925 62.1608 97.2979L61.1655 97.395ZM61.6975 98.333L61.1012 99.1358C61.6438 99.5389 62.2954 99.697 62.9715 99.697V98.697V97.697C62.6023 97.697 62.4046 97.6126 62.2939 97.5303L61.6975 98.333ZM62.9715 98.697V99.697C63.5955 99.697 64.2183 99.5594 64.728 99.1687L64.1195 98.375L63.5111 97.5814C63.4608 97.62 63.3182 97.697 62.9715 97.697V98.697ZM64.1195 98.375L64.728 99.1687C65.232 98.7823 65.5395 98.2284 65.5395 97.563H64.5395H63.5395C63.5395 97.5728 63.5385 97.5742 63.5397 97.5694C63.5409 97.5643 63.5432 97.5577 63.5463 97.5516C63.5494 97.5457 63.5508 97.5449 63.5471 97.5492C63.5431 97.5538 63.5325 97.565 63.5111 97.5814L64.1195 98.375ZM64.5395 97.563H65.5395C65.5395 97.243 65.4669 96.9122 65.2836 96.6087C65.1005 96.3055 64.8422 96.0875 64.5607 95.9379L64.0915 96.821L63.6224 97.7042C63.6325 97.7095 63.6281 97.7086 63.616 97.6977C63.6033 97.6861 63.5867 97.6677 63.5715 97.6424C63.5562 97.6171 63.5473 97.5934 63.5428 97.5757C63.5385 97.5588 63.5395 97.5532 63.5395 97.563H64.5395ZM64.0915 96.821L64.5818 95.9495C64.166 95.7156 63.6011 95.5266 62.9515 95.3618L62.7055 96.331L62.4596 97.3003C63.0606 97.4528 63.4197 97.5905 63.6013 97.6926L64.0915 96.821ZM62.7055 96.331L62.9592 95.3638C62.414 95.2207 61.9934 95.0844 61.6851 94.9579L61.3055 95.883L60.926 96.8082C61.3457 96.9804 61.8584 97.1427 62.4518 97.2983L62.7055 96.331ZM61.3055 95.883L61.7139 94.9702C61.4938 94.8718 61.3025 94.731 61.1341 94.5385L60.3815 95.197L59.629 95.8556C59.9832 96.2604 60.4079 96.577 60.8972 96.7959L61.3055 95.883ZM60.3815 95.197L61.1555 94.5638C61.0824 94.4745 61.0035 94.3145 61.0035 93.993H60.0035H59.0035C59.0035 94.6609 59.1766 95.3036 59.6076 95.8303L60.3815 95.197ZM60.0035 93.993H61.0035C61.0035 93.8148 61.0519 93.6577 61.1673 93.4963L60.3535 92.915L59.5398 92.3338C59.1884 92.8257 59.0035 93.3873 59.0035 93.993H60.0035ZM60.3535 92.915L61.1673 93.4963C61.2788 93.3401 61.4551 93.1887 61.7463 93.0621L61.3475 92.145L60.9488 91.228C60.3812 91.4747 59.8949 91.8367 59.5398 92.3338L60.3535 92.915ZM61.3475 92.145L61.7628 93.0547C62.0418 92.9274 62.3864 92.851 62.8175 92.851V91.851V90.851C62.1473 90.851 61.5119 90.9707 60.9322 91.2354L61.3475 92.145ZM62.8175 91.851V92.851C63.496 92.851 63.9389 93.0198 64.2408 93.2678L64.8755 92.495L65.5103 91.7223C64.7668 91.1117 63.8377 90.851 62.8175 90.851V91.851ZM64.8755 92.495L64.2408 93.2678C64.5214 93.4983 64.6919 93.8108 64.7168 94.309L65.7155 94.259L66.7143 94.2091C66.6645 93.214 66.275 92.3505 65.5103 91.7223L64.8755 92.495ZM65.7155 94.259V93.259H64.4415V94.259V95.259H65.7155V94.259ZM64.4415 94.259L65.4391 94.1894C65.3928 93.5261 65.1064 92.9429 64.5821 92.5169L63.9515 93.293L63.3209 94.0692C63.394 94.1285 63.4342 94.1893 63.444 94.3286L64.4415 94.259ZM63.9515 93.293L64.5941 92.5269C64.0753 92.0917 63.4314 91.929 62.7755 91.929V92.929V93.929C63.109 93.929 63.2491 94.0091 63.3089 94.0592L63.9515 93.293ZM62.7755 92.929V91.929C62.1836 91.929 61.591 92.0554 61.097 92.4131L61.6835 93.223L62.27 94.033C62.3174 93.9987 62.4528 93.929 62.7755 93.929V92.929ZM61.6835 93.223L61.097 92.4131C60.5828 92.7854 60.2775 93.3355 60.2775 93.993H61.2775H62.2775C62.2775 93.9851 62.2783 93.987 62.2762 93.9959C62.274 94.0052 62.2699 94.017 62.2636 94.029C62.2574 94.0408 62.2518 94.0475 62.2503 94.0491C62.2492 94.0503 62.2543 94.0444 62.27 94.033L61.6835 93.223ZM61.2775 93.993H60.2775C60.2775 94.4751 60.4379 94.9385 60.7885 95.3097L61.5155 94.623L62.2425 93.9364C62.246 93.9401 62.2516 93.9467 62.2576 93.9564C62.2637 93.9661 62.2688 93.9763 62.2725 93.9861C62.2804 94.0071 62.2775 94.013 62.2775 93.993H61.2775ZM61.5155 94.623L60.8289 95.3501C61.0948 95.6012 61.4047 95.7933 61.7419 95.936L62.1315 95.015L62.5212 94.0941C62.373 94.0314 62.2723 93.9622 62.2022 93.896L61.5155 94.623ZM62.1315 95.015L61.7842 95.9528C62.0747 96.0604 62.4509 96.1764 62.9009 96.3009L63.1675 95.337L63.4341 94.3732C63.0068 94.2551 62.6924 94.1564 62.4788 94.0773L62.1315 95.015ZM63.1675 95.337L62.9058 96.3022C63.4313 96.4447 63.8294 96.5796 64.1146 96.7029L64.5115 95.785L64.9084 94.8672C64.503 94.6919 64.0051 94.5281 63.4293 94.3719L63.1675 95.337ZM64.5115 95.785L64.1358 96.7118C64.3276 96.7895 64.4882 96.9058 64.6273 97.0717L65.3935 96.429L66.1597 95.7864C65.8135 95.3737 65.3861 95.0605 64.8872 94.8583L64.5115 95.785ZM65.3935 96.429L64.6394 97.0858C64.706 97.1622 64.78 97.2982 64.7857 97.583L65.7855 97.563L66.7853 97.5431C66.7724 96.8946 66.5851 96.2745 66.1476 95.7723L65.3935 96.429ZM65.7855 97.563H64.7855C64.7855 97.785 64.7279 97.9628 64.6142 98.1267L65.4355 98.697L66.2569 99.2674C66.6098 98.7593 66.7855 98.1811 66.7855 97.563H65.7855ZM65.4355 98.697L64.6142 98.1267C64.4982 98.2937 64.3177 98.4523 64.0262 98.5854L64.4415 99.495L64.8568 100.405C65.424 100.146 65.9062 99.7724 66.2569 99.2674L65.4355 98.697ZM64.4415 99.495L64.0354 98.5812C63.766 98.701 63.4235 98.775 62.9855 98.775V99.775V100.775C63.6489 100.775 64.2771 100.662 64.8477 100.409L64.4415 99.495ZM69.138 93.027V92.027H68.138V93.027H69.138ZM69.376 98.347L68.6689 99.0542L68.6796 99.0649L68.6906 99.0752L69.376 98.347ZM71.14 98.571H72.14V97.571H71.14V98.571ZM71.14 99.649V100.649H72.14V99.649H71.14ZM68.396 99.159L67.7185 99.8946L68.396 99.159ZM67.864 93.027H68.864V92.027H67.864V93.027ZM66.87 93.027H65.87V94.027H66.87V93.027ZM66.87 91.977V90.977H65.87V91.977H66.87ZM67.864 91.977V92.977H68.864V91.977H67.864ZM67.864 90.045V89.045H66.864V90.045H67.864ZM69.138 90.045H70.138V89.045H69.138V90.045ZM69.138 91.977H68.138V92.977H69.138V91.977ZM71.14 91.977H72.14V90.977H71.14V91.977ZM71.14 93.027V94.027H72.14V93.027H71.14ZM69.138 93.027H68.138V97.549H69.138H70.138V93.027H69.138ZM69.138 97.549H68.138C68.138 98.021 68.2309 98.6162 68.6689 99.0542L69.376 98.347L70.0831 97.6399C70.1458 97.7027 70.1591 97.7538 70.1558 97.7427C70.1541 97.7371 70.1494 97.7192 70.1452 97.6858C70.1411 97.6525 70.138 97.6075 70.138 97.549H69.138ZM69.376 98.347L68.6906 99.0752C69.1356 99.494 69.7396 99.571 70.202 99.571V98.571V97.571C70.0639 97.571 69.9905 97.5573 69.9632 97.5499C69.9367 97.5427 69.9898 97.5515 70.0613 97.6188L69.376 98.347ZM70.202 98.571V99.571H71.14V98.571V97.571H70.202V98.571ZM71.14 98.571H70.14V99.649H71.14H72.14V98.571H71.14ZM71.14 99.649V98.649H69.992V99.649V100.649H71.14V99.649ZM69.992 99.649V98.649C69.4173 98.649 69.1728 98.515 69.0735 98.4235L68.396 99.159L67.7185 99.8946C68.3285 100.456 69.148 100.649 69.992 100.649V99.649ZM68.396 99.159L69.0735 98.4235C69.0142 98.3689 68.864 98.1677 68.864 97.549H67.864H66.864C66.864 98.4237 67.0685 99.2959 67.7185 99.8946L68.396 99.159ZM67.864 97.549H68.864V93.027H67.864H66.864V97.549H67.864ZM67.864 93.027V92.027H66.87V93.027V94.027H67.864V93.027ZM66.87 93.027H67.87V91.977H66.87H65.87V93.027H66.87ZM66.87 91.977V92.977H67.864V91.977V90.977H66.87V91.977ZM67.864 91.977H68.864V90.045H67.864H66.864V91.977H67.864ZM67.864 90.045V91.045H69.138V90.045V89.045H67.864V90.045ZM69.138 90.045H68.138V91.977H69.138H70.138V90.045H69.138ZM69.138 91.977V92.977H71.14V91.977V90.977H69.138V91.977ZM71.14 91.977H70.14V93.027H71.14H72.14V91.977H71.14ZM71.14 93.027V92.027H69.138V93.027V94.027H71.14V93.027ZM79.6416 96.289V97.289H80.5435L80.6363 96.3919L79.6416 96.289ZM73.5096 96.289V95.289H72.446L72.5115 96.3507L73.5096 96.289ZM74.2796 98.067L73.6025 98.803L73.6102 98.81L73.618 98.8169L74.2796 98.067ZM77.3736 98.319L77.9428 99.1413L77.9471 99.1383L77.3736 98.319ZM78.1576 97.283V96.283H77.4467L77.2131 96.9545L78.1576 97.283ZM79.5296 97.283L80.4929 97.5513L80.8461 96.283H79.5296V97.283ZM78.2976 99.089L78.8937 99.892L78.9014 99.8861L78.2976 99.089ZM74.0416 99.285L73.5439 100.152L73.55 100.156L74.0416 99.285ZM72.6976 97.899L71.8171 98.3732L71.8202 98.3789L72.6976 97.899ZM72.6836 93.713L73.5667 94.1822L73.5667 94.1822L72.6836 93.713ZM74.0136 92.341L74.5005 93.2145L74.5052 93.2119L74.0136 92.341ZM77.9336 92.327L77.4406 93.1971L77.4406 93.1971L77.9336 92.327ZM79.2216 93.643L78.3392 94.1136L78.3439 94.1225L78.3488 94.1312L79.2216 93.643ZM78.3676 95.253V96.253H79.3676V95.253H78.3676ZM78.0456 94.007L77.19 94.5249L77.1963 94.535L78.0456 94.007ZM77.1636 93.209L76.7073 94.0989L76.7208 94.1058L76.7345 94.1123L77.1636 93.209ZM74.2936 93.545L73.6254 92.801L73.6179 92.8079L74.2936 93.545ZM73.5236 95.253L72.5276 95.1637L72.4298 96.253H73.5236V95.253ZM79.6836 95.519H78.6836C78.6836 95.7235 78.6718 95.9456 78.6469 96.1861L79.6416 96.289L80.6363 96.3919C80.6674 96.0911 80.6836 95.7999 80.6836 95.519H79.6836ZM79.6416 96.289V95.289H73.5096V96.289V97.289H79.6416V96.289ZM73.5096 96.289L72.5115 96.3507C72.5708 97.311 72.9097 98.1656 73.6025 98.803L74.2796 98.067L74.9566 97.3311C74.7161 97.1098 74.5417 96.779 74.5077 96.2274L73.5096 96.289ZM74.2796 98.067L73.618 98.8169C74.288 99.4081 75.1015 99.697 76.0016 99.697V98.697V97.697C75.5577 97.697 75.2232 97.566 74.9412 97.3172L74.2796 98.067ZM76.0016 98.697V99.697C76.7057 99.697 77.3747 99.5345 77.9428 99.1412L77.3736 98.319L76.8044 97.4969C76.6445 97.6076 76.3988 97.697 76.0016 97.697V98.697ZM77.3736 98.319L77.9471 99.1383C78.4921 98.7568 78.8835 98.2399 79.1021 97.6116L78.1576 97.283L77.2131 96.9545C77.133 97.1848 77.0018 97.3587 76.8001 97.4998L77.3736 98.319ZM78.1576 97.283V98.283H79.5296V97.283V96.283H78.1576V97.283ZM79.5296 97.283L78.5662 97.0148C78.4203 97.539 78.1371 97.9561 77.6937 98.292L78.2976 99.089L78.9014 99.8861C79.6901 99.2887 80.2283 98.5017 80.4929 97.5513L79.5296 97.283ZM78.2976 99.089L77.7015 98.2861C77.2891 98.5923 76.744 98.775 76.0016 98.775V99.775V100.775C77.0885 100.775 78.0741 100.5 78.8937 99.892L78.2976 99.089ZM76.0016 99.775V98.775C75.429 98.775 74.9478 98.6483 74.5332 98.4142L74.0416 99.285L73.55 100.156C74.2927 100.575 75.1182 100.775 76.0016 100.775V99.775ZM74.0416 99.285L74.5393 98.4177C74.1359 98.1863 73.8166 97.8612 73.575 97.4192L72.6976 97.899L71.8202 98.3789C72.2319 99.1316 72.8086 99.7305 73.5439 100.152L74.0416 99.285ZM72.6976 97.899L73.5781 97.4249C73.341 96.9847 73.2076 96.4521 73.2076 95.799H72.2076H71.2076C71.2076 96.7326 71.4008 97.6001 71.8171 98.3731L72.6976 97.899ZM72.2076 95.799H73.2076C73.2076 95.141 73.3384 94.612 73.5667 94.1822L72.6836 93.713L71.8005 93.2439C71.3941 94.0088 71.2076 94.8704 71.2076 95.799H72.2076ZM72.6836 93.713L73.5667 94.1822C73.7973 93.7482 74.106 93.4344 74.5004 93.2145L74.0136 92.341L73.5267 91.4676C72.7825 91.8824 72.2046 92.4832 71.8005 93.2439L72.6836 93.713ZM74.0136 92.341L74.5052 93.2119C74.916 92.98 75.4055 92.851 76.0016 92.851V91.851V90.851C75.1044 90.851 74.2685 91.0488 73.522 91.4702L74.0136 92.341ZM76.0016 91.851V92.851C76.5798 92.851 77.0498 92.9756 77.4406 93.1971L77.9336 92.327L78.4266 91.457C77.6974 91.0438 76.8794 90.851 76.0016 90.851V91.851ZM77.9336 92.327L77.4406 93.1971C77.838 93.4223 78.1312 93.7235 78.3392 94.1136L79.2216 93.643L80.1039 93.1725C79.7147 92.4426 79.1492 91.8665 78.4266 91.457L77.9336 92.327ZM79.2216 93.643L78.3488 94.1312C78.5645 94.5169 78.6836 94.9709 78.6836 95.519H79.6836H80.6836C80.6836 94.6672 80.4946 93.8706 80.0943 93.1549L79.2216 93.643ZM78.3676 95.253H79.3676C79.3676 94.6176 79.2257 94.0113 78.8949 93.4791L78.0456 94.007L77.1963 94.535C77.2948 94.6935 77.3676 94.9178 77.3676 95.253H78.3676ZM78.0456 94.007L78.9011 93.4892C78.5854 92.9677 78.1434 92.5674 77.5926 92.3058L77.1636 93.209L76.7345 94.1123C76.9305 94.2054 77.0765 94.3371 77.1901 94.5249L78.0456 94.007ZM77.1636 93.209L77.6199 92.3192C77.1016 92.0534 76.5369 91.929 75.9456 91.929V92.929V93.929C76.2503 93.929 76.4976 93.9913 76.7073 94.0989L77.1636 93.209ZM75.9456 92.929V91.929C75.0678 91.929 74.2757 92.2171 73.6255 92.801L74.2936 93.545L74.9617 94.2891C75.2262 94.0516 75.5353 93.929 75.9456 93.929V92.929ZM74.2936 93.545L73.6179 92.8079C72.9503 93.4199 72.6104 94.2405 72.5276 95.1637L73.5236 95.253L74.5196 95.3424C74.5674 94.8096 74.7409 94.4916 74.9693 94.2822L74.2936 93.545ZM73.5236 95.253V96.253H78.3676V95.253V94.253H73.5236V95.253ZM82.6392 93.223H81.6392L83.5298 93.6778L82.6392 93.223ZM83.5912 92.201L83.0909 91.3351L83.0825 91.3401L83.5912 92.201ZM85.1172 91.837H86.1172V90.837H85.1172V91.837ZM85.1172 93.153V94.153H86.1172V93.153H85.1172ZM82.6392 99.649V100.649H83.6392V99.649H82.6392ZM81.3652 99.649H80.3652V100.649H81.3652V99.649ZM81.3652 91.977V90.977H80.3652V91.977H81.3652ZM82.6392 91.977H83.6392V90.977H82.6392V91.977ZM82.6392 93.223L83.5298 93.6778C83.6706 93.4022 83.858 93.2049 84.1 93.062L83.5912 92.201L83.0825 91.3401C82.5031 91.6825 82.0559 92.1666 81.7486 92.7683L82.6392 93.223ZM83.5912 92.201L84.0915 93.0669C84.3279 92.9303 84.6552 92.837 85.1172 92.837V91.837V90.837C84.3846 90.837 83.6945 90.9864 83.091 91.3352L83.5912 92.201ZM85.1172 91.837H84.1172V93.153H85.1172H86.1172V91.837H85.1172ZM85.1172 93.153V92.153H84.7812V93.153V94.153H85.1172V93.153ZM84.7812 93.153V92.153C83.8912 92.153 83.046 92.3982 82.4394 93.0563C81.8471 93.699 81.6392 94.5675 81.6392 95.477H82.6392H83.6392C83.6392 94.8372 83.7884 94.5438 83.91 94.4118C84.0175 94.2952 84.2433 94.153 84.7812 94.153V93.153ZM82.6392 95.477H81.6392V99.649H82.6392H83.6392V95.477H82.6392ZM82.6392 99.649V98.649H81.3652V99.649V100.649H82.6392V99.649ZM81.3652 99.649H82.3652V91.977H81.3652H80.3652V99.649H81.3652ZM81.3652 91.977V92.977H82.6392V91.977V90.977H81.3652V91.977ZM82.6392 91.977H81.6392V93.223H82.6392H83.6392V91.977H82.6392ZM93.4423 93.027V94.027H94.4423V93.027H93.4423ZM91.8323 93.027V92.027H90.8323V93.027H91.8323ZM91.8323 99.649V100.649H92.8323V99.649H91.8323ZM90.5583 99.649H89.5583V100.649H90.5583V99.649ZM90.5583 93.027H91.5583V92.027H90.5583V93.027ZM89.5643 93.027H88.5643V94.027H89.5643V93.027ZM89.5643 91.977V90.977H88.5643V91.977H89.5643ZM90.5583 91.977V92.977H91.5583V91.977H90.5583ZM91.2163 89.555L91.8826 90.3007L91.8836 90.2999L91.2163 89.555ZM93.3583 88.953H94.3583V87.953H93.3583V88.953ZM93.3583 90.017V91.017H94.3583V90.017H93.3583ZM92.1683 90.353L92.8602 91.075L92.8608 91.0744L92.1683 90.353ZM91.8323 91.977H90.8323V92.977H91.8323V91.977ZM93.4423 91.977H94.4423V90.977H93.4423V91.977ZM93.4423 93.027V92.027H91.8323V93.027V94.027H93.4423V93.027ZM91.8323 93.027H90.8323V99.649H91.8323H92.8323V93.027H91.8323ZM91.8323 99.649V98.649H90.5583V99.649V100.649H91.8323V99.649ZM90.5583 99.649H91.5583V93.027H90.5583H89.5583V99.649H90.5583ZM90.5583 93.027V92.027H89.5643V93.027V94.027H90.5583V93.027ZM89.5643 93.027H90.5643V91.977H89.5643H88.5643V93.027H89.5643ZM89.5643 91.977V92.977H90.5583V91.977V90.977H89.5643V91.977ZM90.5583 91.977H91.5583V91.431H90.5583H89.5583V91.977H90.5583ZM90.5583 91.431H91.5583C91.5583 90.724 91.7386 90.4294 91.8826 90.3007L91.2163 89.555L90.55 88.8094C89.8167 89.4646 89.5583 90.4207 89.5583 91.431H90.5583ZM91.2163 89.555L91.8836 90.2999C92.0628 90.1393 92.4789 89.953 93.3583 89.953V88.953V87.953C92.2777 87.953 91.2658 88.1681 90.5491 88.8102L91.2163 89.555ZM93.3583 88.953H92.3583V90.017H93.3583H94.3583V88.953H93.3583ZM93.3583 90.017V89.017C92.7146 89.017 91.9916 89.1365 91.4758 89.6317L92.1683 90.353L92.8608 91.0744C92.8311 91.103 92.8299 91.0868 92.9125 91.0634C92.9973 91.0395 93.1397 91.017 93.3583 91.017V90.017ZM92.1683 90.353L91.4764 89.6311C90.9624 90.1236 90.8323 90.8183 90.8323 91.431H91.8323H92.8323C92.8323 91.248 92.8532 91.1381 92.871 91.0811C92.8874 91.0287 92.8938 91.0429 92.8602 91.075L92.1683 90.353ZM91.8323 91.431H90.8323V91.977H91.8323H92.8323V91.431H91.8323ZM91.8323 91.977V92.977H93.4423V91.977V90.977H91.8323V91.977ZM93.4423 91.977H92.4423V93.027H93.4423H94.4423V91.977H93.4423ZM96.3137 99.285L95.8221 100.156L95.8281 100.159L96.3137 99.285ZM94.9417 97.899L94.0613 98.3731L94.0656 98.3813L94.0702 98.3893L94.9417 97.899ZM94.9557 93.727L94.0867 93.2323L94.0842 93.2368L94.9557 93.727ZM96.3557 92.341L96.8307 93.2211L96.8414 93.2152L96.3557 92.341ZM100.304 92.341L99.8181 93.2153L99.8288 93.2211L100.304 92.341ZM101.69 93.713L100.818 94.2033L100.824 94.2136L101.69 93.713ZM101.676 97.899L100.812 97.3943L100.81 97.3985L101.676 97.899ZM100.262 99.285L100.742 100.162L100.742 100.162L100.262 99.285ZM100.528 97.367L99.6653 96.8608L99.6612 96.8679L99.6572 96.875L100.528 97.367ZM99.5897 93.279L99.1094 94.1561L99.1175 94.1606L99.1257 94.1649L99.5897 93.279ZM97.0277 93.279L97.5006 94.1602L97.508 94.1561L97.0277 93.279ZM96.1037 94.231L96.9824 94.7086L96.9824 94.7086L96.1037 94.231ZM96.0897 97.381L95.2031 97.8436L95.2071 97.8511L95.2111 97.8586L96.0897 97.381ZM97.0137 98.347L96.5245 99.2192L96.5327 99.2238L96.5409 99.2282L97.0137 98.347ZM98.2737 99.775V98.775C97.713 98.775 97.2287 98.6494 96.7994 98.4109L96.3137 99.285L95.8281 100.159C96.5748 100.574 97.3971 100.775 98.2737 100.775V99.775ZM96.3137 99.285L96.8053 98.4142C96.3909 98.1802 96.0627 97.8522 95.8133 97.4088L94.9417 97.899L94.0702 98.3893C94.4927 99.1406 95.0793 99.7365 95.8221 100.156L96.3137 99.285ZM94.9417 97.899L95.8222 97.4249C95.5852 96.9847 95.4517 96.4521 95.4517 95.799H94.4517H93.4517C93.4517 96.7326 93.645 97.6001 94.0613 98.3731L94.9417 97.899ZM94.4517 95.799H95.4517C95.4517 95.1617 95.587 94.6445 95.8273 94.2173L94.9557 93.727L94.0842 93.2368C93.6525 94.0042 93.4517 94.8684 93.4517 95.799H94.4517ZM94.9557 93.727L95.8248 94.2217C96.0818 93.7703 96.4151 93.4453 96.8307 93.2211L96.3557 92.341L95.8808 91.461C95.1203 91.8714 94.5203 92.4705 94.0867 93.2323L94.9557 93.727ZM96.3557 92.341L96.8414 93.2152C97.2687 92.9778 97.7573 92.851 98.3297 92.851V91.851V90.851C97.4462 90.851 96.6187 91.051 95.8701 91.4669L96.3557 92.341ZM98.3297 91.851V92.851C98.9022 92.851 99.3907 92.9778 99.8181 93.2152L100.304 92.341L100.789 91.4669C100.041 91.051 99.2133 90.851 98.3297 90.851V91.851ZM100.304 92.341L99.8288 93.2211C100.246 93.4462 100.572 93.7663 100.818 94.2033L101.69 93.713L102.561 93.2228C102.135 92.4651 101.538 91.8706 100.779 91.461L100.304 92.341ZM101.69 93.713L100.824 94.2136C101.069 94.6372 101.208 95.1547 101.208 95.799H102.208H103.208C103.208 94.8567 103.001 93.9836 102.555 93.2125L101.69 93.713ZM102.208 95.799H101.208C101.208 96.4383 101.066 96.9598 100.812 97.3944L101.676 97.899L102.539 98.4037C102.994 97.625 103.208 96.7464 103.208 95.799H102.208ZM101.676 97.899L100.81 97.3985C100.555 97.8395 100.216 98.1701 99.7819 98.4077L100.262 99.285L100.742 100.162C101.502 99.7466 102.106 99.1532 102.541 98.3996L101.676 97.899ZM100.262 99.285L99.7819 98.4077C99.3419 98.6483 98.846 98.775 98.2737 98.775V99.775V100.775C99.1574 100.775 99.9869 100.575 100.742 100.162L100.262 99.285ZM98.2737 98.655V99.655C98.8948 99.655 99.4862 99.5075 100.033 99.2148L99.5617 98.333L99.0901 97.4513C98.8346 97.5879 98.5673 97.655 98.2737 97.655V98.655ZM99.5617 98.333L100.033 99.2148C100.616 98.9032 101.07 98.4392 101.398 97.8591L100.528 97.367L99.6572 96.875C99.4997 97.1536 99.3102 97.3335 99.0901 97.4513L99.5617 98.333ZM100.528 97.367L101.39 97.8732C101.751 97.2579 101.906 96.5511 101.906 95.799H100.906H99.9057C99.9057 96.279 99.8081 96.6175 99.6653 96.8608L100.528 97.367ZM100.906 95.799H101.906C101.906 95.053 101.758 94.3515 101.412 93.739L100.542 94.231L99.6712 94.7231C99.8103 94.9693 99.9057 95.3131 99.9057 95.799H100.906ZM100.542 94.231L101.412 93.739C101.086 93.1618 100.635 92.6979 100.054 92.3932L99.5897 93.279L99.1257 94.1649C99.328 94.2708 99.5121 94.4416 99.6712 94.7231L100.542 94.231ZM99.5897 93.279L100.07 92.402C99.5273 92.1047 98.9369 91.957 98.3157 91.957V92.957V93.957C98.6093 93.957 98.8682 94.024 99.1094 94.1561L99.5897 93.279ZM98.3157 92.957V91.957C97.6889 91.957 97.0933 92.103 96.5474 92.402L97.0277 93.279L97.508 94.1561C97.7462 94.0257 98.0093 93.957 98.3157 93.957V92.957ZM97.0277 93.279L96.5549 92.3979C95.9796 92.7066 95.5395 93.1751 95.2251 93.7535L96.1037 94.231L96.9824 94.7086C97.1347 94.4283 97.3105 94.2622 97.5005 94.1602L97.0277 93.279ZM96.1037 94.231L95.2251 93.7535C94.894 94.3628 94.7537 95.0589 94.7537 95.799H95.7537H96.7537C96.7537 95.3072 96.8468 94.958 96.9824 94.7086L96.1037 94.231ZM95.7537 95.799H94.7537C94.7537 96.54 94.8861 97.236 95.2031 97.8436L96.0897 97.381L96.9763 96.9185C96.8454 96.6675 96.7537 96.3088 96.7537 95.799H95.7537ZM96.0897 97.381L95.2111 97.8586C95.5239 98.4341 95.9592 98.9021 96.5245 99.2192L97.0137 98.347L97.503 97.4749C97.303 97.3627 97.1222 97.1867 96.9684 96.9035L96.0897 97.381ZM97.0137 98.347L96.5409 99.2282C97.0767 99.5157 97.6605 99.655 98.2737 99.655V98.655V97.655C97.9723 97.655 97.7161 97.589 97.4865 97.4659L97.0137 98.347ZM110.687 91.977H111.687V90.977H110.687V91.977ZM110.687 99.649V100.649H111.687V99.649H110.687ZM109.413 99.649H108.413V100.649H109.413V99.649ZM109.413 98.515H110.413V94.9998L108.563 97.9887L109.413 98.515ZM108.391 99.439L108.838 100.334L108.846 100.33L108.391 99.439ZM105.353 99.397L104.885 100.281L104.892 100.284L104.899 100.288L105.353 99.397ZM104.219 98.277L103.342 98.7571L103.345 98.7634L103.349 98.7696L104.219 98.277ZM103.813 91.977V90.977H102.813V91.977H103.813ZM105.073 91.977H106.073V90.977H105.073V91.977ZM105.647 98.053L104.915 98.7348L104.923 98.7431L105.647 98.053ZM108.825 98.025L108.094 97.3427L108.094 97.3427L108.825 98.025ZM109.413 91.977V90.977H108.413V91.977H109.413ZM110.687 91.977H109.687V99.649H110.687H111.687V91.977H110.687ZM110.687 99.649V98.649H109.413V99.649V100.649H110.687V99.649ZM109.413 99.649H110.413V98.515H109.413H108.413V99.649H109.413ZM109.413 98.515L108.563 97.9887C108.423 98.2148 108.224 98.4016 107.936 98.5484L108.391 99.439L108.846 100.33C109.435 100.029 109.918 99.5993 110.263 99.0414L109.413 98.515ZM108.391 99.439L107.944 98.5446C107.665 98.6838 107.344 98.761 106.963 98.761V99.761V100.761C107.627 100.761 108.258 100.624 108.838 100.333L108.391 99.439ZM106.963 99.761V98.761C106.505 98.761 106.126 98.669 105.807 98.5061L105.353 99.397L104.899 100.288C105.531 100.61 106.226 100.761 106.963 100.761V99.761ZM105.353 99.397L105.821 98.5133C105.523 98.3556 105.28 98.1226 105.089 97.7844L104.219 98.277L103.349 98.7696C103.717 99.4208 104.231 99.9345 104.885 100.281L105.353 99.397ZM104.219 98.277L105.096 97.797C104.924 97.4828 104.813 97.0551 104.813 96.471H103.813H102.813C102.813 97.3057 102.972 98.082 103.342 98.7571L104.219 98.277ZM103.813 96.471H104.813V91.977H103.813H102.813V96.471H103.813ZM103.813 91.977V92.977H105.073V91.977V90.977H103.813V91.977ZM105.073 91.977H104.073V96.303H105.073H106.073V91.977H105.073ZM105.073 96.303H104.073C104.073 97.2227 104.307 98.0826 104.915 98.7348L105.647 98.053L106.378 97.3713C106.221 97.2022 106.073 96.8954 106.073 96.303H105.073ZM105.647 98.053L104.923 98.7431C105.531 99.3805 106.336 99.655 107.215 99.655V98.655V97.655C106.768 97.655 106.528 97.5282 106.371 97.363L105.647 98.053ZM107.215 98.655V99.655C108.117 99.655 108.94 99.3676 109.556 98.7074L108.825 98.025L108.094 97.3427C107.926 97.5225 107.675 97.655 107.215 97.655V98.655ZM108.825 98.025L109.556 98.7074C110.179 98.0396 110.413 97.1459 110.413 96.191H109.413H108.413C108.413 96.8415 108.254 97.1705 108.094 97.3427L108.825 98.025ZM109.413 96.191H110.413V91.977H109.413H108.413V96.191H109.413ZM109.413 91.977V92.977H110.687V91.977V90.977H109.413V91.977ZM118.844 92.691L118.143 93.4039L118.148 93.4096L118.844 92.691ZM119.712 99.649V100.649H120.712V99.649H119.712ZM118.452 99.649H117.452V100.649H118.452V99.649ZM117.878 93.559L117.146 94.2408L117.154 94.2491L117.878 93.559ZM114.7 93.573L113.977 92.8821L113.969 92.8907L114.7 93.573ZM114.112 99.649V100.649H115.112V99.649H114.112ZM112.838 99.649H111.838V100.649H112.838V99.649ZM112.838 91.977V90.977H111.838V91.977H112.838ZM114.112 91.977H115.112V90.977H114.112V91.977ZM114.112 93.069H113.112V96.4739L114.953 93.6098L114.112 93.069ZM115.134 92.159L114.694 91.2608L114.687 91.2646L115.134 92.159ZM116.576 91.837V92.837C117.289 92.837 117.779 93.0464 118.143 93.4039L118.844 92.691L119.545 91.9782C118.751 91.197 117.729 90.837 116.576 90.837V91.837ZM118.844 92.691L118.148 93.4096C118.476 93.7264 118.712 94.2433 118.712 95.127H119.712H120.712C120.712 93.8828 120.369 92.7757 119.539 91.9724L118.844 92.691ZM119.712 95.127H118.712V99.649H119.712H120.712V95.127H119.712ZM119.712 99.649V98.649H118.452V99.649V100.649H119.712V99.649ZM118.452 99.649H119.452V95.309H118.452H117.452V99.649H118.452ZM118.452 95.309H119.452C119.452 94.3857 119.22 93.5173 118.602 92.869L117.878 93.559L117.154 94.2491C117.301 94.4034 117.452 94.7017 117.452 95.309H118.452ZM117.878 93.559L118.609 92.8773C118.003 92.227 117.196 91.943 116.31 91.943V92.943V93.943C116.75 93.943 116.987 94.0698 117.146 94.2408L117.878 93.559ZM116.31 92.943V91.943C115.411 91.943 114.597 92.2334 113.977 92.8822L114.7 93.573L115.423 94.2639C115.606 94.0727 115.864 93.943 116.31 93.943V92.943ZM114.7 93.573L113.969 92.8907C113.346 93.5585 113.112 94.4522 113.112 95.407H114.112H115.112C115.112 94.7566 115.27 94.4276 115.431 94.2554L114.7 93.573ZM114.112 95.407H113.112V99.649H114.112H115.112V95.407H114.112ZM114.112 99.649V98.649H112.838V99.649V100.649H114.112V99.649ZM112.838 99.649H113.838V91.977H112.838H111.838V99.649H112.838ZM112.838 91.977V92.977H114.112V91.977V90.977H112.838V91.977ZM114.112 91.977H113.112V93.069H114.112H115.112V91.977H114.112ZM114.112 93.069L114.953 93.6098C115.105 93.3736 115.307 93.1903 115.581 93.0535L115.134 92.159L114.687 91.2646C114.102 91.5571 113.623 91.9805 113.271 92.5283L114.112 93.069ZM115.134 92.159L115.573 93.0573C115.866 92.9142 116.195 92.837 116.576 92.837V91.837V90.837C115.912 90.837 115.279 90.9746 114.694 91.2608L115.134 92.159ZM121.793 93.727L122.673 94.202L122.676 94.1962L121.793 93.727ZM123.095 92.341L122.591 91.4772L122.585 91.481L123.095 92.341ZM126.637 92.271L126.158 93.149L126.171 93.1556L126.637 92.271ZM127.813 93.349L126.957 93.8662L128.813 96.938V93.349H127.813ZM127.813 89.289V88.289H126.813V89.289H127.813ZM129.101 89.289H130.101V88.289H129.101V89.289ZM129.101 99.649V100.649H130.101V99.649H129.101ZM127.813 99.649H126.813V100.649H127.813V99.649ZM127.813 98.207H128.813L126.937 97.7244L127.813 98.207ZM126.693 99.341L127.198 100.204L127.21 100.197L126.693 99.341ZM123.095 99.271L122.574 100.125L122.58 100.129L123.095 99.271ZM121.793 97.857L122.679 97.3936L122.679 97.3936L121.793 97.857ZM126.511 93.307L125.999 94.1663L126.011 94.1735L126.024 94.1802L126.511 93.307ZM123.907 93.293L123.411 92.4248L123.411 92.4248L123.907 93.293ZM122.969 94.273L123.848 94.7506L123.848 94.7506L122.969 94.273ZM122.969 97.325L122.086 97.7947L122.09 97.8026L122.969 97.325ZM123.907 98.319L123.395 99.1783L123.403 99.1829L123.411 99.1873L123.907 98.319ZM126.511 98.319L127.007 99.1873L127.014 99.1836L126.511 98.319ZM127.463 97.325L128.342 97.8026L128.346 97.7947L127.463 97.325ZM121.317 95.785H122.317C122.317 95.138 122.447 94.6207 122.673 94.202L121.793 93.727L120.913 93.2521C120.504 94.0094 120.317 94.864 120.317 95.785H121.317ZM121.793 93.727L122.676 94.1962C122.912 93.7514 123.221 93.4288 123.605 93.2011L123.095 92.341L122.585 91.481C121.867 91.9066 121.308 92.5081 120.91 93.2579L121.793 93.727ZM123.095 92.341L123.599 93.2048C123.996 92.9732 124.445 92.851 124.971 92.851V91.851V90.851C124.115 90.851 123.314 91.0555 122.591 91.4773L123.095 92.341ZM124.971 91.851V92.851C125.405 92.851 125.795 92.9508 126.158 93.1489L126.637 92.271L127.116 91.3932C126.452 91.0312 125.732 90.851 124.971 90.851V91.851ZM126.637 92.271L126.171 93.1556C126.541 93.351 126.79 93.5903 126.957 93.8662L127.813 93.349L128.669 92.8319C128.294 92.2118 127.76 91.7325 127.103 91.3865L126.637 92.271ZM127.813 93.349H128.813V89.289H127.813H126.813V93.349H127.813ZM127.813 89.289V90.289H129.101V89.289V88.289H127.813V89.289ZM129.101 89.289H128.101V99.649H129.101H130.101V89.289H129.101ZM129.101 99.649V98.649H127.813V99.649V100.649H129.101V99.649ZM127.813 99.649H128.813V98.207H127.813H126.813V99.649H127.813ZM127.813 98.207L126.937 97.7244C126.779 98.0119 126.537 98.2672 126.176 98.485L126.693 99.341L127.21 100.197C127.838 99.8176 128.343 99.3168 128.689 98.6897L127.813 98.207ZM126.693 99.341L126.188 98.4779C125.869 98.6644 125.47 98.775 124.957 98.775V99.775V100.775C125.769 100.775 126.527 100.596 127.198 100.204L126.693 99.341ZM124.957 99.775V98.775C124.449 98.775 124.007 98.6522 123.609 98.4136L123.095 99.271L122.58 100.129C123.303 100.562 124.103 100.775 124.957 100.775V99.775ZM123.095 99.271L123.616 98.4174C123.23 98.1818 122.918 97.8497 122.679 97.3936L121.793 97.857L120.907 98.3205C121.303 99.0777 121.859 99.6883 122.574 100.125L123.095 99.271ZM121.793 97.857L122.679 97.3936C122.446 96.9478 122.317 96.4197 122.317 95.785H121.317H120.317C120.317 96.6997 120.505 97.553 120.907 98.3205L121.793 97.857ZM127.813 95.799H128.813C128.813 95.0843 128.668 94.4102 128.342 93.8095L127.463 94.287L126.584 94.7646C126.725 95.0225 126.813 95.3565 126.813 95.799H127.813ZM127.463 94.287L128.342 93.8095C128.024 93.2249 127.575 92.756 126.998 92.4339L126.511 93.307L126.024 94.1802C126.249 94.3061 126.435 94.4905 126.584 94.7646L127.463 94.287ZM126.511 93.307L127.022 92.4478C126.469 92.1182 125.857 91.957 125.209 91.957V92.957V93.957C125.513 93.957 125.769 94.0292 125.999 94.1663L126.511 93.307ZM125.209 92.957V91.957C124.569 91.957 123.962 92.1097 123.411 92.4248L123.907 93.293L124.403 94.1613C124.636 94.0284 124.897 93.957 125.209 93.957V92.957ZM123.907 93.293L123.411 92.4248C122.844 92.7486 122.405 93.2169 122.09 93.7955L122.969 94.273L123.848 94.7506C124 94.4705 124.186 94.2855 124.403 94.1613L123.907 93.293ZM122.969 94.273L122.09 93.7955C121.764 94.3962 121.619 95.0703 121.619 95.785H122.619H123.619C123.619 95.3425 123.707 95.0085 123.848 94.7506L122.969 94.273ZM122.619 95.785H121.619C121.619 96.5068 121.763 97.1871 122.086 97.7947L122.969 97.325L123.852 96.8554C123.708 96.5857 123.619 96.2393 123.619 95.785H122.619ZM122.969 97.325L122.09 97.8026C122.403 98.3782 122.838 98.8465 123.395 99.1783L123.907 98.319L124.418 97.4598C124.192 97.3249 124.001 97.1306 123.848 96.8475L122.969 97.325ZM123.907 98.319L123.411 99.1873C123.962 99.5024 124.569 99.655 125.209 99.655V98.655V97.655C124.897 97.655 124.636 97.5837 124.403 97.4508L123.907 98.319ZM125.209 98.655V99.655C125.849 99.655 126.456 99.5024 127.007 99.1873L126.511 98.319L126.015 97.4508C125.782 97.5837 125.521 97.655 125.209 97.655V98.655ZM126.511 98.319L127.014 99.1836C127.582 98.8532 128.026 98.3841 128.342 97.8026L127.463 97.325L126.584 96.8475C126.434 97.1247 126.243 97.3182 126.008 97.4545L126.511 98.319ZM127.463 97.325L128.346 97.7947C128.668 97.1893 128.813 96.5144 128.813 95.799H127.813H126.813C126.813 96.241 126.725 96.5835 126.58 96.8554L127.463 97.325Z" fill="black" mask="url(#path-2-outside-1_109_4)"/>
</g>
<defs>
<filter id="filter0_d_109_4" x="0" y="0" width="151.983" height="226.322" filterUnits="userSpaceOnUse" color-interpolation-filters="sRGB">
<feFlood flood-opacity="0" result="BackgroundImageFix"/>
<feColorMatrix in="SourceAlpha" type="matrix" values="0 0 0 0 0 0 0 0 0 0 0 0 0 0 0 0 0 0 127 0" result="hardAlpha"/>
<feOffset dy="4"/>
<feGaussianBlur stdDeviation="2"/>
<feComposite in2="hardAlpha" operator="out"/>
<feColorMatrix type="matrix" values="0 0 0 0 0 0 0 0 0 0 0 0 0 0 0 0 0 0 0.25 0"/>
<feBlend mode="normal" in2="BackgroundImageFix" result="effect1_dropShadow_109_4"/>
<feBlend mode="normal" in="SourceGraphic" in2="effect1_dropShadow_109_4" result="shape"/>
</filter>
</defs>
</svg>
