<svg width="8" height="15" viewBox="0 0 8 15" fill="none" xmlns="http://www.w3.org/2000/svg">
<path opacity="0.7" d="M7.30698 13.8117L1.53821 7.97978C1.41169 7.85254 1.34048 7.68053 1.34003 7.50109C1.33958 7.32165 1.40993 7.14928 1.53581 7.02141L7.27402 1.16063C7.39983 1.03196 7.47007 0.85903 7.46962 0.679077C7.46917 0.499123 7.39806 0.326546 7.2716 0.198509C7.20983 0.13546 7.13606 0.0854148 7.05463 0.0513217C6.97321 0.0172287 6.88579 -0.000220892 6.79752 3.75068e-07C6.70925 0.000221642 6.62192 0.0181093 6.54067 0.0526101C6.45942 0.0871109 6.3859 0.137525 6.32444 0.200883L0.58623 6.06041C0.209171 6.44636 -0.001325 6.96489 2.75839e-05 7.50445C0.00138017 8.04401 0.214473 8.56148 0.593462 8.94553L6.36098 14.7762C6.42277 14.8395 6.49662 14.8897 6.57816 14.9239C6.6597 14.9581 6.74727 14.9756 6.83569 14.9754C6.92411 14.9751 7.01159 14.9572 7.09295 14.9226C7.17431 14.888 7.24791 14.8374 7.30939 14.7738C7.4352 14.6452 7.50545 14.4722 7.50499 14.2923C7.50454 14.1123 7.43343 13.9398 7.30698 13.8117Z" fill="#2C2C2C"/>
</svg>
