<svg width="16" height="16" viewBox="0 0 16 16" fill="none" xmlns="http://www.w3.org/2000/svg">
<g clip-path="url(#clip0_4_41)">
<path d="M10.6666 6.66667C10.6666 8.14 9.47331 9.33333 7.99998 9.33333C6.52665 9.33333 5.33331 8.14 5.33331 6.66667C5.33331 5.19333 6.52665 4 7.99998 4C9.47331 4 10.6666 5.19333 10.6666 6.66667Z" fill="#02A8D2"/>
<path fill-rule="evenodd" clip-rule="evenodd" d="M8 16C12.42 16 16 12.42 16 8C16 3.58 12.42 0 8 0C3.58 0 0 3.58 0 8C0 12.42 3.58 16 8 16ZM12.18 14.0267C14.0867 12.7 15.3333 10.5 15.3333 8C15.3333 3.94667 12.0533 0.666667 8 0.666667C3.94667 0.666667 0.666667 3.94667 0.666667 8C0.666667 10.5 1.91333 12.7 3.82 14.0267C4.29 13.1467 5.80667 10.6667 8 10.6667C10.1933 10.6667 11.7067 13.1467 12.18 14.0267Z" fill="#02A8D2"/>
</g>
<defs>
<clipPath id="clip0_4_41">
<rect width="16" height="16" fill="white"/>
</clipPath>
</defs>
</svg>
